<?xml version="1.0" encoding="UTF-8" standalone="no"?>
<!-- Created with Inkscape (http://www.inkscape.org/) -->

<svg
   xmlns:dc="http://purl.org/dc/elements/1.1/"
   xmlns:cc="http://creativecommons.org/ns#"
   xmlns:rdf="http://www.w3.org/1999/02/22-rdf-syntax-ns#"
   xmlns:svg="http://www.w3.org/2000/svg"
   xmlns="http://www.w3.org/2000/svg"
   xmlns:sodipodi="http://sodipodi.sourceforge.net/DTD/sodipodi-0.dtd"
   xmlns:inkscape="http://www.inkscape.org/namespaces/inkscape"
   width="130"
   height="130"
   id="svg2"
   version="1.1"
   inkscape:version="0.48.4 r9939"
   sodipodi:docname="11001011.svg">
  <defs
     id="defs4" />
  <sodipodi:namedview
     id="base"
     pagecolor="#ffffff"
     bordercolor="#666666"
     borderopacity="1.0"
     inkscape:pageopacity="0.0"
     inkscape:pageshadow="2"
     inkscape:zoom="11.313708"
     inkscape:cx="74.620661"
     inkscape:cy="49.347553"
     inkscape:document-units="px"
     inkscape:current-layer="layer1"
     showgrid="false"
     showguides="true"
     inkscape:window-width="1366"
     inkscape:window-height="706"
     inkscape:window-x="-8"
     inkscape:window-y="-8"
     inkscape:window-maximized="1"
     inkscape:snap-to-guides="true"
     inkscape:snap-grids="false"
     fit-margin-top="0"
     fit-margin-left="0"
     fit-margin-right="0"
     fit-margin-bottom="0">
    <inkscape:grid
       type="xygrid"
       id="grid3791"
       empspacing="5"
       visible="true"
       enabled="true"
       snapvisiblegridlinesonly="true"
       originx="-187.71847px"
       originy="-760.85766px" />
    <sodipodi:guide
       position="6.02879,-762.27187"
       orientation="0,744.09448"
       id="guide2999" />
    <sodipodi:guide
       position="556.37601,-760.85766"
       orientation="-1052.3622,0"
       id="guide3001" />
    <sodipodi:guide
       position="556.37601,291.50454"
       orientation="0,-744.09448"
       id="guide3003" />
    <sodipodi:guide
       position="-194.78954,292.73144"
       orientation="1052.3622,0"
       id="guide3005" />
  </sodipodi:namedview>
  <metadata
     id="metadata7">
    <rdf:RDF>
      <cc:Work
         rdf:about="">
        <dc:format>image/svg+xml</dc:format>
        <dc:type
           rdf:resource="http://purl.org/dc/dcmitype/StillImage" />
        <dc:title />
      </cc:Work>
    </rdf:RDF>
  </metadata>
  <g
     inkscape:label="Layer 1"
     inkscape:groupmode="layer"
     id="layer1"
     style="display:inline"
     transform="translate(-187.71847,-161.50432)">
    <path
       sodipodi:type="arc"
       style="fill:#ff0000;fill-rule:evenodd;stroke:#000000;stroke-width:2;stroke-linecap:butt;stroke-linejoin:miter;stroke-miterlimit:3.20000005;stroke-opacity:1;stroke-dasharray:none"
       id="path2989"
       sodipodi:cx="362"
       sodipodi:cy="274.36218"
       sodipodi:rx="64"
       sodipodi:ry="64"
       d="m 426,274.36218 c 0,35.34623 -28.65378,64 -64,64 -35.34622,0 -64,-28.65377 -64,-64 0,-35.34622 28.65378,-64 64,-64 35.34622,0 64,28.65378 64,64 z"
       transform="translate(-109.28153,-47.857864)" />
    <path
       sodipodi:type="arc"
       style="fill:none;stroke:#000000;stroke-width:2.35151505;stroke-linecap:round;stroke-linejoin:miter;stroke-miterlimit:4;stroke-opacity:1;stroke-dasharray:none;display:inline"
       id="path2991-1-1"
       sodipodi:cx="253.5"
       sodipodi:cy="377.86218"
       sodipodi:rx="47.5"
       sodipodi:ry="47.5"
       d="m 297.97398,361.17941 c 9.21364,24.56231 -3.22891,51.94312 -27.79121,61.15676 -24.5623,9.21363 -51.94312,-3.22892 -61.15675,-27.79122 -9.21364,-24.5623 3.22891,-51.94311 27.79121,-61.15675 5.91055,-2.21712 12.20375,-3.23386 18.51177,-2.99079"
       transform="matrix(0.85051546,0,0,0.85051546,34.875365,-77.633718)"
       inkscape:transform-center-y="17.5"
       sodipodi:start="5.9243156"
       sodipodi:end="11.034089"
       sodipodi:open="true" />
    <path
       sodipodi:type="arc"
       style="fill:none;stroke:#000000;stroke-width:2.84320784;stroke-linecap:butt;stroke-linejoin:miter;stroke-miterlimit:4;stroke-opacity:1;stroke-dasharray:none;display:inline"
       id="path2991-1-7"
       sodipodi:cx="253.5"
       sodipodi:cy="377.86218"
       sodipodi:rx="47.5"
       sodipodi:ry="47.5"
       d="m 301,377.86218 c 0,26.23353 -21.26647,47.5 -47.5,47.5 -26.23353,0 -47.5,-21.26647 -47.5,-47.5 0,-26.23352 21.26647,-47.5 47.5,-47.5 26.23353,0 47.5,21.26648 47.5,47.5 z"
       transform="matrix(0.70343082,0,0,0.70343082,57.009746,-48.221175)" />
    <path
       sodipodi:type="arc"
       style="fill:none;stroke:#000000;stroke-width:2.35151505;stroke-linecap:round;stroke-linejoin:miter;stroke-miterlimit:4;stroke-opacity:1;stroke-dasharray:none;display:inline"
       id="path2991-1-1-0-8"
       sodipodi:cx="253.5"
       sodipodi:cy="377.86218"
       sodipodi:rx="47.5"
       sodipodi:ry="47.5"
       d="m 251.67369,330.39731 c 26.21413,-1.00865 48.28255,19.42444 49.29119,45.63856 1.00864,26.21413 -19.42444,48.28255 -45.63857,49.29119 -26.21413,1.00864 -48.28255,-19.42444 -49.29119,-45.63857 -0.92897,-24.14354 16.41405,-45.13762 40.29893,-48.78266"
       transform="matrix(-0.42525773,-0.73656799,0.73656799,-0.42525773,95.4494,564.91312)"
       inkscape:transform-center-y="-8.7499996"
       inkscape:transform-center-x="-15.155443"
       sodipodi:start="4.6739309"
       sodipodi:end="10.844134"
       sodipodi:open="true" />
    <path
       sodipodi:type="arc"
       style="fill:none;stroke:#000000;stroke-width:2.35151505;stroke-linecap:round;stroke-linejoin:miter;stroke-miterlimit:4;stroke-opacity:1;stroke-dasharray:none;display:inline"
       id="path2991-1-1-9-5"
       sodipodi:cx="253.5"
       sodipodi:cy="377.86218"
       sodipodi:rx="47.5"
       sodipodi:ry="47.5"
       d="m 260.9008,330.94227 c 15.02572,2.37005 28.00743,11.79305 34.91666,25.34486"
       transform="matrix(0.85051546,0,0,0.85051546,34.969665,-77.729635)"
       inkscape:transform-center-y="17.5"
       sodipodi:start="4.8688327"
       sodipodi:end="5.8116983"
       sodipodi:open="true" />
    <g
       style="stroke:#000000;stroke-width:4.19476986;stroke-miterlimit:4;stroke-opacity:1;stroke-dasharray:none;display:inline"
       id="g3788-5-9"
       transform="matrix(0.41290722,-0.23839209,0.23839209,0.41290722,85.637881,201.7836)">
      <path
         sodipodi:nodetypes="cc"
         inkscape:connector-curvature="0"
         id="path3793-17-5"
         d="m 250,221.38731 -23.54893,0.0132"
         style="fill:none;stroke:#000000;stroke-width:4.19476986;stroke-linecap:round;stroke-linejoin:miter;stroke-miterlimit:4;stroke-opacity:1;stroke-dasharray:none" />
      <path
         sodipodi:nodetypes="cc"
         inkscape:connector-curvature="0"
         id="path3793-2-1-4"
         d="m 250,230.36955 -22.69022,0.0453"
         style="fill:none;stroke:#000000;stroke-width:4.19476986;stroke-linecap:round;stroke-linejoin:miter;stroke-miterlimit:4;stroke-opacity:1;stroke-dasharray:none;display:inline" />
      <path
         sodipodi:open="true"
         transform="matrix(0.89075324,0,0,0.89075324,33.761566,18.915254)"
         sodipodi:end="7.097452"
         sodipodi:start="5.4835553"
         d="m 258.48486,228.77669 c 1.98021,1.92464 2.02527,5.09014 0.10063,7.07035 -0.0501,0.0515 -0.10124,0.10195 -0.15348,0.15125"
         sodipodi:ry="5"
         sodipodi:rx="5"
         sodipodi:cy="232.36218"
         sodipodi:cx="255"
         id="path3823-1-3"
         style="fill:none;stroke:#000000;stroke-width:4.70923901;stroke-linecap:round;stroke-linejoin:round;stroke-miterlimit:4;stroke-opacity:1;stroke-dasharray:none"
         sodipodi:type="arc" />
      <g
         id="g3828-3-5-1"
         style="stroke:#000000;stroke-width:4.19476986;stroke-miterlimit:4;stroke-opacity:1;stroke-dasharray:none;display:inline"
         transform="matrix(-0.70710678,0.70710678,-0.70710678,-0.70710678,581.67429,225.54963)">
        <path
           style="fill:none;stroke:#000000;stroke-width:4.19476986;stroke-linecap:round;stroke-linejoin:miter;stroke-miterlimit:4;stroke-opacity:1;stroke-dasharray:none"
           d="m 250.00063,222.13731 -22.65625,-0.0156"
           id="path3793-1-27-2"
           inkscape:connector-curvature="0"
           sodipodi:nodetypes="cc" />
        <path
           style="fill:none;stroke:#000000;stroke-width:4.19476986;stroke-linecap:round;stroke-linejoin:miter;stroke-miterlimit:4;stroke-opacity:1;stroke-dasharray:none;display:inline"
           d="m 250.13537,231.11955 -12.20324,0.007"
           id="path3793-2-6-6-3"
           inkscape:connector-curvature="0"
           sodipodi:nodetypes="cc" />
        <path
           sodipodi:type="arc"
           style="fill:none;stroke:#000000;stroke-width:4.70923901;stroke-linecap:round;stroke-linejoin:round;stroke-miterlimit:4;stroke-opacity:1;stroke-dasharray:none"
           id="path3823-8-1-3"
           sodipodi:cx="255"
           sodipodi:cy="232.36218"
           sodipodi:rx="5"
           sodipodi:ry="5"
           d="m 254.89932,227.3632 c 2.76087,-0.0556 5.04406,2.13744 5.09967,4.89831 0.0556,2.76086 -2.13745,5.04406 -4.89831,5.09966 -0.0959,0.002 -0.19181,0.001 -0.28764,-0.002"
           sodipodi:start="4.6922523"
           sodipodi:end="7.8913827"
           sodipodi:open="true"
           transform="matrix(0.89075324,0,0,0.89075324,23.354619,19.664929)" />
      </g>
      <g
         id="g3828-3-8-4-4"
         style="stroke:#000000;stroke-width:4.19476986;stroke-miterlimit:4;stroke-opacity:1;stroke-dasharray:none;display:inline"
         transform="matrix(-0.70710678,-0.70710678,0.70710678,-0.70710678,261.0898,546.65444)">
        <path
           style="fill:none;stroke:#000000;stroke-width:4.19476986;stroke-linecap:round;stroke-linejoin:miter;stroke-miterlimit:4;stroke-opacity:1;stroke-dasharray:none"
           d="m 250.00063,222.13731 -12.1426,0.0374"
           id="path3793-1-2-2-1"
           inkscape:connector-curvature="0"
           sodipodi:nodetypes="cc" />
        <path
           style="fill:none;stroke:#000000;stroke-width:4.19476986;stroke-linecap:round;stroke-linejoin:miter;stroke-miterlimit:4;stroke-opacity:1;stroke-dasharray:none;display:inline"
           d="m 250.13537,231.11955 -23.41519,0.0131"
           id="path3793-2-6-7-3-1"
           inkscape:connector-curvature="0"
           sodipodi:nodetypes="cc" />
        <path
           sodipodi:type="arc"
           style="fill:none;stroke:#000000;stroke-width:4.70923901;stroke-linecap:round;stroke-linejoin:round;stroke-miterlimit:4;stroke-opacity:1;stroke-dasharray:none"
           id="path3823-8-7-2-3"
           sodipodi:cx="255"
           sodipodi:cy="232.36218"
           sodipodi:rx="5"
           sodipodi:ry="5"
           d="m 254.89932,227.3632 c 2.76087,-0.0556 5.04406,2.13744 5.09967,4.89831 0.0556,2.76086 -2.13745,5.04406 -4.89831,5.09966 -0.0959,0.002 -0.19181,0.001 -0.28764,-0.002"
           sodipodi:start="4.6922523"
           sodipodi:end="7.8913827"
           sodipodi:open="true"
           transform="matrix(0.89075324,0,0,0.89075324,23.354619,19.664929)" />
      </g>
    </g>
    <g
       style="stroke:#000000;stroke-width:4.19476986;stroke-miterlimit:4;stroke-opacity:1;stroke-dasharray:none;display:inline"
       id="g3788-5-9-8"
       transform="matrix(0,0.47678419,-0.47678419,0,362.33329,95.591577)">
      <path
         sodipodi:nodetypes="cc"
         inkscape:connector-curvature="0"
         id="path3793-17-5-7"
         d="m 250,221.38731 -23.04744,0"
         style="fill:none;stroke:#000000;stroke-width:4.19476986;stroke-linecap:round;stroke-linejoin:miter;stroke-miterlimit:4;stroke-opacity:1;stroke-dasharray:none" />
      <path
         sodipodi:nodetypes="cc"
         inkscape:connector-curvature="0"
         id="path3793-2-1-4-4"
         d="m 250,230.36955 -23.80836,-0.12288"
         style="fill:none;stroke:#000000;stroke-width:4.19476986;stroke-linecap:round;stroke-linejoin:miter;stroke-miterlimit:4;stroke-opacity:1;stroke-dasharray:none;display:inline" />
      <path
         sodipodi:open="true"
         transform="matrix(0.89075324,0,0,0.89075324,33.761566,18.915254)"
         sodipodi:end="7.097452"
         sodipodi:start="5.4835553"
         d="m 258.48486,228.77669 c 1.98021,1.92464 2.02527,5.09014 0.10063,7.07035 -0.0501,0.0515 -0.10124,0.10195 -0.15348,0.15125"
         sodipodi:ry="5"
         sodipodi:rx="5"
         sodipodi:cy="232.36218"
         sodipodi:cx="255"
         id="path3823-1-3-2"
         style="fill:none;stroke:#000000;stroke-width:4.70923901;stroke-linecap:round;stroke-linejoin:round;stroke-miterlimit:4;stroke-opacity:1;stroke-dasharray:none"
         sodipodi:type="arc" />
      <g
         id="g3828-3-5-1-7"
         style="stroke:#000000;stroke-width:4.19476986;stroke-miterlimit:4;stroke-opacity:1;stroke-dasharray:none;display:inline"
         transform="matrix(-0.70710678,0.70710678,-0.70710678,-0.70710678,581.67429,225.54963)">
        <path
           style="fill:none;stroke:#000000;stroke-width:4.19476986;stroke-linecap:round;stroke-linejoin:miter;stroke-miterlimit:4;stroke-opacity:1;stroke-dasharray:none"
           d="m 250.00063,222.13731 -22.65625,-0.0156"
           id="path3793-1-27-2-7"
           inkscape:connector-curvature="0"
           sodipodi:nodetypes="cc" />
        <path
           style="fill:none;stroke:#000000;stroke-width:4.19476986;stroke-linecap:round;stroke-linejoin:miter;stroke-miterlimit:4;stroke-opacity:1;stroke-dasharray:none;display:inline"
           d="m 250.13537,231.11955 -12.20324,0.007"
           id="path3793-2-6-6-3-9"
           inkscape:connector-curvature="0"
           sodipodi:nodetypes="cc" />
        <path
           sodipodi:type="arc"
           style="fill:none;stroke:#000000;stroke-width:4.70923901;stroke-linecap:round;stroke-linejoin:round;stroke-miterlimit:4;stroke-opacity:1;stroke-dasharray:none"
           id="path3823-8-1-3-3"
           sodipodi:cx="255"
           sodipodi:cy="232.36218"
           sodipodi:rx="5"
           sodipodi:ry="5"
           d="m 254.89932,227.3632 c 2.76087,-0.0556 5.04406,2.13744 5.09967,4.89831 0.0556,2.76086 -2.13745,5.04406 -4.89831,5.09966 -0.0959,0.002 -0.19181,0.001 -0.28764,-0.002"
           sodipodi:start="4.6922523"
           sodipodi:end="7.8913827"
           sodipodi:open="true"
           transform="matrix(0.89075324,0,0,0.89075324,23.354619,19.664929)" />
      </g>
      <g
         id="g3828-3-8-4-4-1"
         style="stroke:#000000;stroke-width:4.19476986;stroke-miterlimit:4;stroke-opacity:1;stroke-dasharray:none;display:inline"
         transform="matrix(-0.70710678,-0.70710678,0.70710678,-0.70710678,261.0898,546.65444)">
        <path
           style="fill:none;stroke:#000000;stroke-width:4.19476986;stroke-linecap:round;stroke-linejoin:miter;stroke-miterlimit:4;stroke-opacity:1;stroke-dasharray:none"
           d="m 250.00063,222.13731 -12.1426,0.0374"
           id="path3793-1-2-2-1-9"
           inkscape:connector-curvature="0"
           sodipodi:nodetypes="cc" />
        <path
           style="fill:none;stroke:#000000;stroke-width:4.19476986;stroke-linecap:round;stroke-linejoin:miter;stroke-miterlimit:4;stroke-opacity:1;stroke-dasharray:none;display:inline"
           d="m 250.13537,231.11955 -23.41519,0.0131"
           id="path3793-2-6-7-3-1-8"
           inkscape:connector-curvature="0"
           sodipodi:nodetypes="cc" />
        <path
           sodipodi:type="arc"
           style="fill:none;stroke:#000000;stroke-width:4.70923901;stroke-linecap:round;stroke-linejoin:round;stroke-miterlimit:4;stroke-opacity:1;stroke-dasharray:none"
           id="path3823-8-7-2-3-6"
           sodipodi:cx="255"
           sodipodi:cy="232.36218"
           sodipodi:rx="5"
           sodipodi:ry="5"
           d="m 254.89932,227.3632 c 2.76087,-0.0556 5.04406,2.13744 5.09967,4.89831 0.0556,2.76086 -2.13745,5.04406 -4.89831,5.09966 -0.0959,0.002 -0.19181,0.001 -0.28764,-0.002"
           sodipodi:start="4.6922523"
           sodipodi:end="7.8913827"
           sodipodi:open="true"
           transform="matrix(0.89075324,0,0,0.89075324,23.354619,19.664929)" />
      </g>
    </g>
    <g
       style="stroke:#000000;stroke-width:4.19476986;stroke-miterlimit:4;stroke-opacity:1;stroke-dasharray:none;display:inline"
       id="g3788-5-9-8-5"
       transform="matrix(-0.46053816,0.12340083,-0.12340083,-0.46053816,419.401,303.6855)">
      <path
         sodipodi:nodetypes="cc"
         inkscape:connector-curvature="0"
         id="path3793-17-5-7-0"
         d="m 250,221.38731 -24.30271,-0.001"
         style="fill:none;stroke:#000000;stroke-width:4.19476986;stroke-linecap:round;stroke-linejoin:miter;stroke-miterlimit:4;stroke-opacity:1;stroke-dasharray:none" />
      <path
         sodipodi:nodetypes="cc"
         inkscape:connector-curvature="0"
         id="path3793-2-1-4-4-2"
         d="m 250,230.36955 -23.37525,0.0705"
         style="fill:none;stroke:#000000;stroke-width:4.19476986;stroke-linecap:round;stroke-linejoin:miter;stroke-miterlimit:4;stroke-opacity:1;stroke-dasharray:none;display:inline" />
      <path
         sodipodi:open="true"
         transform="matrix(0.89075324,0,0,0.89075324,33.761566,18.915254)"
         sodipodi:end="7.097452"
         sodipodi:start="5.4835553"
         d="m 258.48486,228.77669 c 1.98021,1.92464 2.02527,5.09014 0.10063,7.07035 -0.0501,0.0515 -0.10124,0.10195 -0.15348,0.15125"
         sodipodi:ry="5"
         sodipodi:rx="5"
         sodipodi:cy="232.36218"
         sodipodi:cx="255"
         id="path3823-1-3-2-8"
         style="fill:none;stroke:#000000;stroke-width:4.70923901;stroke-linecap:round;stroke-linejoin:round;stroke-miterlimit:4;stroke-opacity:1;stroke-dasharray:none"
         sodipodi:type="arc" />
      <g
         id="g3828-3-5-1-7-6"
         style="stroke:#000000;stroke-width:4.19476986;stroke-miterlimit:4;stroke-opacity:1;stroke-dasharray:none;display:inline"
         transform="matrix(-0.70710678,0.70710678,-0.70710678,-0.70710678,581.67429,225.54963)">
        <path
           style="fill:none;stroke:#000000;stroke-width:4.19476986;stroke-linecap:round;stroke-linejoin:miter;stroke-miterlimit:4;stroke-opacity:1;stroke-dasharray:none"
           d="m 250.00063,222.13731 -22.65625,-0.0156"
           id="path3793-1-27-2-7-0"
           inkscape:connector-curvature="0"
           sodipodi:nodetypes="cc" />
        <path
           style="fill:none;stroke:#000000;stroke-width:4.19476986;stroke-linecap:round;stroke-linejoin:miter;stroke-miterlimit:4;stroke-opacity:1;stroke-dasharray:none;display:inline"
           d="m 250.13537,231.11955 -12.20324,0.007"
           id="path3793-2-6-6-3-9-2"
           inkscape:connector-curvature="0"
           sodipodi:nodetypes="cc" />
        <path
           sodipodi:type="arc"
           style="fill:none;stroke:#000000;stroke-width:4.70923901;stroke-linecap:round;stroke-linejoin:round;stroke-miterlimit:4;stroke-opacity:1;stroke-dasharray:none"
           id="path3823-8-1-3-3-4"
           sodipodi:cx="255"
           sodipodi:cy="232.36218"
           sodipodi:rx="5"
           sodipodi:ry="5"
           d="m 254.89932,227.3632 c 2.76087,-0.0556 5.04406,2.13744 5.09967,4.89831 0.0556,2.76086 -2.13745,5.04406 -4.89831,5.09966 -0.0959,0.002 -0.19181,0.001 -0.28764,-0.002"
           sodipodi:start="4.6922523"
           sodipodi:end="7.8913827"
           sodipodi:open="true"
           transform="matrix(0.89075324,0,0,0.89075324,23.354619,19.664929)" />
      </g>
      <g
         id="g3828-3-8-4-4-1-8"
         style="stroke:#000000;stroke-width:4.19476986;stroke-miterlimit:4;stroke-opacity:1;stroke-dasharray:none;display:inline"
         transform="matrix(-0.70710678,-0.70710678,0.70710678,-0.70710678,261.0898,546.65444)">
        <path
           style="fill:none;stroke:#000000;stroke-width:4.19476986;stroke-linecap:round;stroke-linejoin:miter;stroke-miterlimit:4;stroke-opacity:1;stroke-dasharray:none"
           d="m 250.00063,222.13731 -12.1426,0.0374"
           id="path3793-1-2-2-1-9-6"
           inkscape:connector-curvature="0"
           sodipodi:nodetypes="cc" />
        <path
           style="fill:none;stroke:#000000;stroke-width:4.19476986;stroke-linecap:round;stroke-linejoin:miter;stroke-miterlimit:4;stroke-opacity:1;stroke-dasharray:none;display:inline"
           d="m 250.13537,231.11955 -23.41519,0.0131"
           id="path3793-2-6-7-3-1-8-5"
           inkscape:connector-curvature="0"
           sodipodi:nodetypes="cc" />
        <path
           sodipodi:type="arc"
           style="fill:none;stroke:#000000;stroke-width:4.70923901;stroke-linecap:round;stroke-linejoin:round;stroke-miterlimit:4;stroke-opacity:1;stroke-dasharray:none"
           id="path3823-8-7-2-3-6-0"
           sodipodi:cx="255"
           sodipodi:cy="232.36218"
           sodipodi:rx="5"
           sodipodi:ry="5"
           d="m 254.89932,227.3632 c 2.76087,-0.0556 5.04406,2.13744 5.09967,4.89831 0.0556,2.76086 -2.13745,5.04406 -4.89831,5.09966 -0.0959,0.002 -0.19181,0.001 -0.28764,-0.002"
           sodipodi:start="4.6922523"
           sodipodi:end="7.8913827"
           sodipodi:open="true"
           transform="matrix(0.89075324,0,0,0.89075324,23.354619,19.664929)" />
      </g>
    </g>
    <path
       style="fill:#ffffff;stroke:#000000;stroke-width:0;stroke-linecap:round;stroke-miterlimit:4;stroke-opacity:1;stroke-dasharray:none"
       d="m 66.549164,59.496037 c -0.199704,-0.07051 -8.300525,-8.16691 -8.446831,-8.442221 -0.212219,-0.399343 -0.16083,-0.82131 0.142031,-1.16625 0.147878,-0.168424 0.386526,-0.332068 0.53033,-0.363653 0.603334,-0.132513 0.727902,-0.03881 3.178276,2.390865 2.582404,2.560584 2.682345,2.629804 3.290262,2.278852 0.620619,-0.358286 0.598683,-0.113815 0.597385,-6.65764 -8.93e-4,-4.493295 -0.02693,-5.928735 -0.110546,-6.093958 -0.06016,-0.118873 -0.248503,-0.297859 -0.418542,-0.397748 -0.279027,-0.163912 -0.485653,-0.184687 -2.119868,-0.213131 -6.376981,-0.110996 -12.819488,1.346452 -18.69539,4.229341 -1.694998,0.831615 -2.72925,1.406926 -3.921303,2.181253 -0.406627,0.264135 -0.751299,0.468225 -0.765938,0.453535 -0.03635,-0.03648 0.599302,-2.512577 0.869103,-3.385467 1.198748,-3.878326 3.381859,-8.244241 5.701449,-11.402097 2.162849,-2.944472 4.970871,-5.843313 7.685353,-7.933921 l 0.641441,-0.494017 1.137229,0.299993 c 2.91486,0.768919 6.048304,2.096302 8.538583,3.617097 5.292416,3.232039 9.624337,7.988643 12.345668,13.555985 0.340611,0.696829 0.606064,1.280098 0.589893,1.296154 -0.01617,0.01606 -0.626022,-0.16737 -1.355226,-0.407612 -2.269829,-0.747812 -5.973915,-1.616696 -6.787223,-1.592108 -0.184181,0.0056 -0.451988,0.07069 -0.595125,0.144704 -0.543991,0.281308 -0.528409,0.09233 -0.528409,6.408583 0,5.824702 0.0058,5.939017 0.316663,6.249887 0.195744,0.195745 0.599428,0.303012 0.919854,0.244426 0.257105,-0.04701 0.704116,-0.447725 2.608376,-2.338228 1.263954,-1.254822 2.384976,-2.325737 2.49116,-2.379812 0.817599,-0.416357 1.77755,0.477695 1.438196,1.339468 -0.139973,0.355456 -8.04409,8.313457 -8.447121,8.504708 -0.282677,0.134138 -0.582005,0.160478 -0.82973,0.07301 l 0,0 z"
       id="path4424"
       inkscape:connector-curvature="0"
       transform="translate(187.71847,161.50432)" />
    <path
       style="fill:#ffffff;stroke:#000000;stroke-width:0;stroke-linecap:round;stroke-miterlimit:4;stroke-opacity:1;stroke-dasharray:none"
       d="M 45.468543,88.372404 C 43.523834,88.222142 42.158986,88.018715 40.342019,87.608306 34.451049,86.277677 28.895042,83.165002 24.523334,78.746107 l -0.881055,-0.890564 0.158684,-1.128126 c 1.016067,-7.22353 4.076944,-14.067635 8.877565,-19.850191 0.747242,-0.900085 2.972136,-3.202185 3.733955,-3.863525 l 0.489881,-0.42527 -0.03677,2.690704 c -0.02267,1.658675 0.004,3.189981 0.06953,3.99242 0.354298,4.33876 1.352384,8.508857 2.988166,12.484832 1.154933,2.80721 3.109526,6.364763 3.72427,6.778539 0.505328,0.34013 0.728463,0.279279 2.314169,-0.631093 6.064048,-3.481437 8.626228,-5.002387 8.784819,-5.214802 0.116942,-0.156631 0.179552,-0.376333 0.179552,-0.630057 0,-0.316995 -0.05056,-0.440128 -0.271419,-0.660985 -0.24596,-0.24596 -0.552369,-0.345854 -3.266714,-1.064995 -1.647413,-0.436466 -3.116265,-0.863103 -3.264115,-0.948081 -0.14785,-0.08498 -0.343557,-0.306438 -0.434903,-0.492134 -0.141286,-0.287219 -0.150946,-0.388156 -0.06469,-0.676036 0.140447,-0.468771 0.547281,-0.793375 0.994356,-0.793375 0.31078,0 10.610412,2.687924 11.236931,2.932533 0.386134,0.150758 0.683219,0.564712 0.683219,0.951986 0,0.286648 -2.495745,9.802987 -2.878063,10.974125 -0.235333,0.720885 -0.793406,1.059094 -1.411477,0.855398 -0.393572,-0.129709 -0.748595,-0.581572 -0.748595,-0.952792 0,-0.131245 0.357972,-1.576628 0.795495,-3.211963 0.437522,-1.635334 0.795346,-3.083229 0.795164,-3.217544 -9.19e-4,-0.682825 -0.731662,-1.15143 -1.391406,-0.892275 -0.562571,0.220985 -9.418825,5.383972 -9.701001,5.655455 -0.229223,0.220538 -0.265165,0.318652 -0.265165,0.723865 0,0.464025 0.0089,0.479372 0.879431,1.522999 1.007024,1.207209 3.544898,3.77168 4.62484,4.673308 0.402215,0.335804 0.700526,0.640022 0.662913,0.676039 -0.220261,0.210917 -4.710444,0.390948 -6.432349,0.257902 l 0,0 z"
       id="path4426"
       inkscape:connector-curvature="0"
       transform="translate(187.71847,161.50432)" />
    <path
       style="fill:#ffffff;stroke:#000000;stroke-opacity:1;stroke-width:0;stroke-miterlimit:4;stroke-dasharray:none"
       d="m 104.06076,85.462676 c 0.12722,-0.665746 0.16286,-3.822865 0.0619,-5.48198 -0.17527,-2.879684 -0.56295,-5.369013 -1.25168,-8.037287 -0.42631,-1.651595 -1.18793,-4.01473 -1.41428,-4.388196 -0.19688,-0.32484 -0.50189,-0.479219 -0.9468,-0.479209 -0.38246,8e-6 -11.364088,2.926018 -11.77058,3.136223 -0.580082,0.299972 -0.683837,1.111541 -0.200783,1.570519 0.133082,0.126448 1.395435,0.888934 2.805229,1.694414 1.409795,0.80548 2.671809,1.583726 2.804475,1.729437 0.320763,0.352301 0.38816,0.663539 0.236535,1.092318 -0.165273,0.467372 -0.500401,0.706039 -0.991391,0.706039 -0.347784,0 -0.893422,-0.291247 -5.284587,-2.820776 -2.693218,-1.551427 -5.035971,-2.947117 -5.206119,-3.101532 -0.273153,-0.247897 -0.309061,-0.330686 -0.306816,-0.707391 0.0024,-0.397354 0.192418,-0.754226 2.769021,-5.199607 1.521563,-2.625134 2.868061,-4.90646 2.992215,-5.069612 0.316756,-0.416247 0.760808,-0.58911 1.18604,-0.461707 0.459038,0.137531 0.784161,0.547599 0.784161,0.989039 0,0.425418 -0.06978,0.563331 -1.805007,3.567277 -1.180688,2.043956 -1.376973,2.436727 -1.376973,2.755355 0,0.472098 0.322437,0.885063 0.754303,0.966081 0.233149,0.04374 1.542477,-0.279398 5.762012,-1.422042 3.003168,-0.813254 5.569013,-1.534102 5.701878,-1.601888 0.34845,-0.177771 0.537495,-0.596196 0.490232,-1.085063 -0.0442,-0.457171 -0.787814,-1.874136 -1.952116,-3.71977 C 93.85872,53.684608 88.393115,48.704259 81.581821,45.222465 L 80.040022,44.434329 79.655793,43.447085 C 79.081197,41.970706 77.710552,39.263654 76.822132,37.850544 73.313952,32.270476 68.298498,27.789011 62.440747,25.000327 60.924367,24.278428 59.235292,23.61221 57.897064,23.208171 l -1.008148,-0.30438 1.140731,-0.681001 c 4.984649,-2.975768 10.466804,-4.787039 16.361888,-5.405869 2.690992,-0.282483 6.378524,-0.203918 9.262415,0.197343 6.510305,0.905835 12.700157,3.422739 17.98703,7.313846 2.89895,2.133613 5.85094,5.069469 8.09971,8.055461 2.338,3.104465 4.35519,6.881351 5.66487,10.606601 3.86844,11.003387 2.60264,23.260263 -3.44299,33.338863 -2.02607,3.377626 -4.91308,6.827464 -7.74896,9.259617 l -0.21161,0.181481 0.0588,-0.307457 0,0 z"
       id="path3043"
       inkscape:connector-curvature="0"
       transform="translate(187.71847,161.50432)" />
  </g>
</svg>
