<?xml version="1.0" encoding="UTF-8" standalone="no"?>
<!-- Created with Inkscape (http://www.inkscape.org/) -->

<svg
   xmlns:dc="http://purl.org/dc/elements/1.1/"
   xmlns:cc="http://creativecommons.org/ns#"
   xmlns:rdf="http://www.w3.org/1999/02/22-rdf-syntax-ns#"
   xmlns:svg="http://www.w3.org/2000/svg"
   xmlns="http://www.w3.org/2000/svg"
   xmlns:sodipodi="http://sodipodi.sourceforge.net/DTD/sodipodi-0.dtd"
   xmlns:inkscape="http://www.inkscape.org/namespaces/inkscape"
   width="130"
   height="130"
   id="svg2"
   version="1.1"
   inkscape:version="0.48.4 r9939"
   sodipodi:docname="11100001.svg">
  <defs
     id="defs4" />
  <sodipodi:namedview
     id="base"
     pagecolor="#ffffff"
     bordercolor="#666666"
     borderopacity="1.0"
     inkscape:pageopacity="0.0"
     inkscape:pageshadow="2"
     inkscape:zoom="2"
     inkscape:cx="122.16175"
     inkscape:cy="50.65164"
     inkscape:document-units="px"
     inkscape:current-layer="layer1"
     showgrid="true"
     showguides="true"
     inkscape:window-width="1366"
     inkscape:window-height="706"
     inkscape:window-x="-8"
     inkscape:window-y="-8"
     inkscape:window-maximized="1"
     inkscape:snap-to-guides="false"
     inkscape:snap-grids="false"
     fit-margin-top="0"
     fit-margin-left="0"
     fit-margin-right="0"
     fit-margin-bottom="0">
    <inkscape:grid
       type="xygrid"
       id="grid3791"
       empspacing="5"
       visible="true"
       enabled="true"
       snapvisiblegridlinesonly="true"
       originx="-190.21847px"
       originy="-759.85766px" />
    <sodipodi:guide
       position="3.52879,-761.27187"
       orientation="0,744.09448"
       id="guide2999" />
    <sodipodi:guide
       position="553.87601,-759.85766"
       orientation="-1052.3622,0"
       id="guide3001" />
    <sodipodi:guide
       position="553.87601,292.50454"
       orientation="0,-744.09448"
       id="guide3003" />
    <sodipodi:guide
       position="-197.28954,293.73144"
       orientation="1052.3622,0"
       id="guide3005" />
  </sodipodi:namedview>
  <metadata
     id="metadata7">
    <rdf:RDF>
      <cc:Work
         rdf:about="">
        <dc:format>image/svg+xml</dc:format>
        <dc:type
           rdf:resource="http://purl.org/dc/dcmitype/StillImage" />
        <dc:title></dc:title>
      </cc:Work>
    </rdf:RDF>
  </metadata>
  <g
     inkscape:label="Layer 1"
     inkscape:groupmode="layer"
     id="layer1"
     style="display:inline"
     transform="translate(-190.21847,-162.50432)">
    <path
       sodipodi:type="arc"
       style="fill:#ff0000;fill-rule:evenodd;stroke:#000000;stroke-width:2;stroke-linecap:butt;stroke-linejoin:miter;stroke-miterlimit:3.20000005;stroke-opacity:1;stroke-dasharray:none"
       id="path2989"
       sodipodi:cx="362"
       sodipodi:cy="274.36218"
       sodipodi:rx="64"
       sodipodi:ry="64"
       d="m 426,274.36218 c 0,35.34623 -28.65378,64 -64,64 -35.34622,0 -64,-28.65377 -64,-64 0,-35.34622 28.65378,-64 64,-64 35.34622,0 64,28.65378 64,64 z"
       transform="translate(-106.78153,-46.857864)" />
    <g
       style="stroke:#000000;stroke-width:4.19476986;stroke-miterlimit:4;stroke-opacity:1;stroke-dasharray:none;display:inline"
       id="g3788-5-9-8"
       transform="matrix(0,0.47678419,-0.47678419,0,362.67168,91.047383)">
      <path
         sodipodi:nodetypes="cc"
         inkscape:connector-curvature="0"
         id="path3793-17-5-7"
         d="m 250,221.38731 -22.85081,0"
         style="fill:none;stroke:#000000;stroke-width:4.19476986;stroke-linecap:round;stroke-linejoin:miter;stroke-miterlimit:4;stroke-opacity:1;stroke-dasharray:none" />
      <path
         sodipodi:nodetypes="cc"
         inkscape:connector-curvature="0"
         id="path3793-2-1-4-4"
         d="m 250,230.36955 -23.74282,-0.0573"
         style="fill:none;stroke:#000000;stroke-width:4.19476986;stroke-linecap:round;stroke-linejoin:miter;stroke-miterlimit:4;stroke-opacity:1;stroke-dasharray:none;display:inline" />
      <path
         sodipodi:open="true"
         transform="matrix(0.89075324,0,0,0.89075324,33.761566,18.915254)"
         sodipodi:end="7.097452"
         sodipodi:start="5.4835553"
         d="m 258.48486,228.77669 c 1.98021,1.92464 2.02527,5.09014 0.10063,7.07035 -0.0501,0.0515 -0.10124,0.10195 -0.15348,0.15125"
         sodipodi:ry="5"
         sodipodi:rx="5"
         sodipodi:cy="232.36218"
         sodipodi:cx="255"
         id="path3823-1-3-2"
         style="fill:none;stroke:#000000;stroke-width:4.70923901;stroke-linecap:round;stroke-linejoin:round;stroke-miterlimit:4;stroke-opacity:1;stroke-dasharray:none"
         sodipodi:type="arc" />
      <g
         id="g3828-3-5-1-7"
         style="stroke:#000000;stroke-width:4.19476986;stroke-miterlimit:4;stroke-opacity:1;stroke-dasharray:none;display:inline"
         transform="matrix(-0.70710678,0.70710678,-0.70710678,-0.70710678,581.67429,225.54963)">
        <path
           style="fill:none;stroke:#000000;stroke-width:4.19476986;stroke-linecap:round;stroke-linejoin:miter;stroke-miterlimit:4;stroke-opacity:1;stroke-dasharray:none"
           d="m 250.00063,222.13731 -22.65625,-0.0156"
           id="path3793-1-27-2-7"
           inkscape:connector-curvature="0"
           sodipodi:nodetypes="cc" />
        <path
           style="fill:none;stroke:#000000;stroke-width:4.19476986;stroke-linecap:round;stroke-linejoin:miter;stroke-miterlimit:4;stroke-opacity:1;stroke-dasharray:none;display:inline"
           d="m 250.13537,231.11955 -12.20324,0.007"
           id="path3793-2-6-6-3-9"
           inkscape:connector-curvature="0"
           sodipodi:nodetypes="cc" />
        <path
           sodipodi:type="arc"
           style="fill:none;stroke:#000000;stroke-width:4.70923901;stroke-linecap:round;stroke-linejoin:round;stroke-miterlimit:4;stroke-opacity:1;stroke-dasharray:none"
           id="path3823-8-1-3-3"
           sodipodi:cx="255"
           sodipodi:cy="232.36218"
           sodipodi:rx="5"
           sodipodi:ry="5"
           d="m 254.89932,227.3632 c 2.76087,-0.0556 5.04406,2.13744 5.09967,4.89831 0.0556,2.76086 -2.13745,5.04406 -4.89831,5.09966 -0.0959,0.002 -0.19181,0.001 -0.28764,-0.002"
           sodipodi:start="4.6922523"
           sodipodi:end="7.8913827"
           sodipodi:open="true"
           transform="matrix(0.89075324,0,0,0.89075324,23.354619,19.664929)" />
      </g>
      <g
         id="g3828-3-8-4-4-1"
         style="stroke:#000000;stroke-width:4.19476986;stroke-miterlimit:4;stroke-opacity:1;stroke-dasharray:none;display:inline"
         transform="matrix(-0.70710678,-0.70710678,0.70710678,-0.70710678,261.0898,546.65444)">
        <path
           style="fill:none;stroke:#000000;stroke-width:4.19476986;stroke-linecap:round;stroke-linejoin:miter;stroke-miterlimit:4;stroke-opacity:1;stroke-dasharray:none"
           d="m 250.00063,222.13731 -12.1426,0.0374"
           id="path3793-1-2-2-1-9"
           inkscape:connector-curvature="0"
           sodipodi:nodetypes="cc" />
        <path
           style="fill:none;stroke:#000000;stroke-width:4.19476986;stroke-linecap:round;stroke-linejoin:miter;stroke-miterlimit:4;stroke-opacity:1;stroke-dasharray:none;display:inline"
           d="m 250.13537,231.11955 -23.41519,0.0131"
           id="path3793-2-6-7-3-1-8"
           inkscape:connector-curvature="0"
           sodipodi:nodetypes="cc" />
        <path
           sodipodi:type="arc"
           style="fill:none;stroke:#000000;stroke-width:4.70923901;stroke-linecap:round;stroke-linejoin:round;stroke-miterlimit:4;stroke-opacity:1;stroke-dasharray:none"
           id="path3823-8-7-2-3-6"
           sodipodi:cx="255"
           sodipodi:cy="232.36218"
           sodipodi:rx="5"
           sodipodi:ry="5"
           d="m 254.89932,227.3632 c 2.76087,-0.0556 5.04406,2.13744 5.09967,4.89831 0.0556,2.76086 -2.13745,5.04406 -4.89831,5.09966 -0.0959,0.002 -0.19181,0.001 -0.28764,-0.002"
           sodipodi:start="4.6922523"
           sodipodi:end="7.8913827"
           sodipodi:open="true"
           transform="matrix(0.89075324,0,0,0.89075324,23.354619,19.664929)" />
      </g>
    </g>
    <path
       sodipodi:type="arc"
       style="fill:none;stroke:#000000;stroke-width:1.14600551;stroke-linecap:round;stroke-miterlimit:4;stroke-opacity:1;stroke-dasharray:none"
       id="path4432"
       sodipodi:cx="84.781532"
       sodipodi:cy="84.857658"
       sodipodi:rx="25"
       sodipodi:ry="25"
       d="m 85.98532,59.886657 a 25,25 0 1 1 -2.494171,0.0043"
       transform="matrix(1.7451923,0,0,1.7451923,107.03992,94.394045)"
       inkscape:transform-center-y="15.124997"
       sodipodi:start="4.7605591"
       sodipodi:end="10.943936"
       sodipodi:open="true" />
    <path
       sodipodi:type="arc"
       style="fill:none;stroke:#000000;stroke-width:1.14600551;stroke-linecap:round;stroke-miterlimit:4;stroke-opacity:1;stroke-dasharray:none;display:inline"
       id="path4432-3"
       sodipodi:cx="84.781532"
       sodipodi:cy="84.857658"
       sodipodi:rx="25"
       sodipodi:ry="25"
       d="m 85.808464,59.878759 a 25,25 0 1 1 -2.53395,0.02436"
       transform="matrix(-0.87259615,-1.5113809,1.5113809,-0.87259615,213.82643,421.98314)"
       inkscape:transform-center-y="-7.5624996"
       inkscape:transform-center-x="-13.098638"
       sodipodi:start="4.7534778"
       sodipodi:end="10.935257"
       sodipodi:open="true" />
    <path
       sodipodi:type="arc"
       style="fill:none;stroke:#000000;stroke-width:1.14600551;stroke-linecap:round;stroke-miterlimit:4;stroke-opacity:1;stroke-dasharray:none;display:inline"
       id="path4432-7"
       sodipodi:cx="84.781532"
       sodipodi:cy="84.857658"
       sodipodi:rx="25"
       sodipodi:ry="25"
       d="m 86.066556,59.890706 a 25,25 0 1 1 -2.51009,-0.003"
       transform="matrix(-0.87259615,1.5113809,-1.5113809,-0.87259615,444.38365,165.70876)"
       inkscape:transform-center-y="-7.5624974"
       inkscape:transform-center-x="13.09863"
       sodipodi:start="4.7638126"
       sodipodi:end="10.946552"
       sodipodi:open="true" />
    <g
       style="stroke:#000000;stroke-width:4.19476986;stroke-miterlimit:4;stroke-opacity:1;stroke-dasharray:none;display:inline"
       id="g3788-5-9-8-6"
       transform="matrix(-0.41290722,-0.23839209,0.23839209,-0.41290722,318.7801,388.51832)">
      <path
         sodipodi:nodetypes="cc"
         inkscape:connector-curvature="0"
         id="path3793-17-5-7-3"
         d="m 250,221.38731 -25.07159,0.0334"
         style="fill:none;stroke:#000000;stroke-width:4.19476986;stroke-linecap:round;stroke-linejoin:miter;stroke-miterlimit:4;stroke-opacity:1;stroke-dasharray:none" />
      <path
         sodipodi:nodetypes="cc"
         inkscape:connector-curvature="0"
         id="path3793-2-1-4-4-6"
         d="m 250,230.36955 -25.09225,0.0129"
         style="fill:none;stroke:#000000;stroke-width:4.19476986;stroke-linecap:round;stroke-linejoin:miter;stroke-miterlimit:4;stroke-opacity:1;stroke-dasharray:none;display:inline" />
      <path
         sodipodi:open="true"
         transform="matrix(0.89075324,0,0,0.89075324,33.761566,18.915254)"
         sodipodi:end="7.097452"
         sodipodi:start="5.4835553"
         d="m 258.48486,228.77669 c 1.98021,1.92464 2.02527,5.09014 0.10063,7.07035 -0.0501,0.0515 -0.10124,0.10195 -0.15348,0.15125"
         sodipodi:ry="5"
         sodipodi:rx="5"
         sodipodi:cy="232.36218"
         sodipodi:cx="255"
         id="path3823-1-3-2-1"
         style="fill:none;stroke:#000000;stroke-width:4.70923901;stroke-linecap:round;stroke-linejoin:round;stroke-miterlimit:4;stroke-opacity:1;stroke-dasharray:none"
         sodipodi:type="arc" />
      <g
         id="g3828-3-5-1-7-5"
         style="stroke:#000000;stroke-width:4.19476986;stroke-miterlimit:4;stroke-opacity:1;stroke-dasharray:none;display:inline"
         transform="matrix(-0.70710678,0.70710678,-0.70710678,-0.70710678,581.67429,225.54963)">
        <path
           style="fill:none;stroke:#000000;stroke-width:4.19476986;stroke-linecap:round;stroke-linejoin:miter;stroke-miterlimit:4;stroke-opacity:1;stroke-dasharray:none"
           d="m 250.00063,222.13731 -22.65625,-0.0156"
           id="path3793-1-27-2-7-4"
           inkscape:connector-curvature="0"
           sodipodi:nodetypes="cc" />
        <path
           style="fill:none;stroke:#000000;stroke-width:4.19476986;stroke-linecap:round;stroke-linejoin:miter;stroke-miterlimit:4;stroke-opacity:1;stroke-dasharray:none;display:inline"
           d="m 250.13537,231.11955 -12.20324,0.007"
           id="path3793-2-6-6-3-9-2"
           inkscape:connector-curvature="0"
           sodipodi:nodetypes="cc" />
        <path
           sodipodi:type="arc"
           style="fill:none;stroke:#000000;stroke-width:4.70923901;stroke-linecap:round;stroke-linejoin:round;stroke-miterlimit:4;stroke-opacity:1;stroke-dasharray:none"
           id="path3823-8-1-3-3-0"
           sodipodi:cx="255"
           sodipodi:cy="232.36218"
           sodipodi:rx="5"
           sodipodi:ry="5"
           d="m 254.89932,227.3632 c 2.76087,-0.0556 5.04406,2.13744 5.09967,4.89831 0.0556,2.76086 -2.13745,5.04406 -4.89831,5.09966 -0.0959,0.002 -0.19181,0.001 -0.28764,-0.002"
           sodipodi:start="4.6922523"
           sodipodi:end="7.8913827"
           sodipodi:open="true"
           transform="matrix(0.89075324,0,0,0.89075324,23.354619,19.664929)" />
      </g>
      <g
         id="g3828-3-8-4-4-1-9"
         style="stroke:#000000;stroke-width:4.19476986;stroke-miterlimit:4;stroke-opacity:1;stroke-dasharray:none;display:inline"
         transform="matrix(-0.70710678,-0.70710678,0.70710678,-0.70710678,261.0898,546.65444)">
        <path
           style="fill:none;stroke:#000000;stroke-width:4.19476986;stroke-linecap:round;stroke-linejoin:miter;stroke-miterlimit:4;stroke-opacity:1;stroke-dasharray:none"
           d="m 250.00063,222.13731 -12.1426,0.0374"
           id="path3793-1-2-2-1-9-7"
           inkscape:connector-curvature="0"
           sodipodi:nodetypes="cc" />
        <path
           style="fill:none;stroke:#000000;stroke-width:4.19476986;stroke-linecap:round;stroke-linejoin:miter;stroke-miterlimit:4;stroke-opacity:1;stroke-dasharray:none;display:inline"
           d="m 250.13537,231.11955 -23.41519,0.0131"
           id="path3793-2-6-7-3-1-8-3"
           inkscape:connector-curvature="0"
           sodipodi:nodetypes="cc" />
        <path
           sodipodi:type="arc"
           style="fill:none;stroke:#000000;stroke-width:4.70923901;stroke-linecap:round;stroke-linejoin:round;stroke-miterlimit:4;stroke-opacity:1;stroke-dasharray:none"
           id="path3823-8-7-2-3-6-72"
           sodipodi:cx="255"
           sodipodi:cy="232.36218"
           sodipodi:rx="5"
           sodipodi:ry="5"
           d="m 254.89932,227.3632 c 2.76087,-0.0556 5.04406,2.13744 5.09967,4.89831 0.0556,2.76086 -2.13745,5.04406 -4.89831,5.09966 -0.0959,0.002 -0.19181,0.001 -0.28764,-0.002"
           sodipodi:start="4.6922523"
           sodipodi:end="7.8913827"
           sodipodi:open="true"
           transform="matrix(0.89075324,0,0,0.89075324,23.354619,19.664929)" />
      </g>
    </g>
    <g
       style="stroke:#000000;stroke-width:4.19476986;stroke-miterlimit:4;stroke-opacity:1;stroke-dasharray:none;display:inline"
       id="g3788-5-9-8-7"
       transform="matrix(0.41290722,-0.23839209,0.23839209,0.41290722,83.766546,202.40664)">
      <path
         sodipodi:nodetypes="cc"
         inkscape:connector-curvature="0"
         id="path3793-17-5-7-7"
         d="m 250,221.38731 -24.80738,-0.0322"
         style="fill:none;stroke:#000000;stroke-width:4.19476986;stroke-linecap:round;stroke-linejoin:miter;stroke-miterlimit:4;stroke-opacity:1;stroke-dasharray:none" />
      <path
         sodipodi:nodetypes="cc"
         inkscape:connector-curvature="0"
         id="path3793-2-1-4-4-7"
         d="m 250,230.36955 -24.56501,0.008"
         style="fill:none;stroke:#000000;stroke-width:4.19476986;stroke-linecap:round;stroke-linejoin:miter;stroke-miterlimit:4;stroke-opacity:1;stroke-dasharray:none;display:inline" />
      <path
         sodipodi:open="true"
         transform="matrix(0.89075324,0,0,0.89075324,33.761566,18.915254)"
         sodipodi:end="7.097452"
         sodipodi:start="5.4835553"
         d="m 258.48486,228.77669 c 1.98021,1.92464 2.02527,5.09014 0.10063,7.07035 -0.0501,0.0515 -0.10124,0.10195 -0.15348,0.15125"
         sodipodi:ry="5"
         sodipodi:rx="5"
         sodipodi:cy="232.36218"
         sodipodi:cx="255"
         id="path3823-1-3-2-3"
         style="fill:none;stroke:#000000;stroke-width:4.70923901;stroke-linecap:round;stroke-linejoin:round;stroke-miterlimit:4;stroke-opacity:1;stroke-dasharray:none"
         sodipodi:type="arc" />
      <g
         id="g3828-3-5-1-7-3"
         style="stroke:#000000;stroke-width:4.19476986;stroke-miterlimit:4;stroke-opacity:1;stroke-dasharray:none;display:inline"
         transform="matrix(-0.70710678,0.70710678,-0.70710678,-0.70710678,581.67429,225.54963)">
        <path
           style="fill:none;stroke:#000000;stroke-width:4.19476986;stroke-linecap:round;stroke-linejoin:miter;stroke-miterlimit:4;stroke-opacity:1;stroke-dasharray:none"
           d="m 250.00063,222.13731 -22.65625,-0.0156"
           id="path3793-1-27-2-7-5"
           inkscape:connector-curvature="0"
           sodipodi:nodetypes="cc" />
        <path
           style="fill:none;stroke:#000000;stroke-width:4.19476986;stroke-linecap:round;stroke-linejoin:miter;stroke-miterlimit:4;stroke-opacity:1;stroke-dasharray:none;display:inline"
           d="m 250.13537,231.11955 -12.20324,0.007"
           id="path3793-2-6-6-3-9-9"
           inkscape:connector-curvature="0"
           sodipodi:nodetypes="cc" />
        <path
           sodipodi:type="arc"
           style="fill:none;stroke:#000000;stroke-width:4.70923901;stroke-linecap:round;stroke-linejoin:round;stroke-miterlimit:4;stroke-opacity:1;stroke-dasharray:none"
           id="path3823-8-1-3-3-98"
           sodipodi:cx="255"
           sodipodi:cy="232.36218"
           sodipodi:rx="5"
           sodipodi:ry="5"
           d="m 254.89932,227.3632 c 2.76087,-0.0556 5.04406,2.13744 5.09967,4.89831 0.0556,2.76086 -2.13745,5.04406 -4.89831,5.09966 -0.0959,0.002 -0.19181,0.001 -0.28764,-0.002"
           sodipodi:start="4.6922523"
           sodipodi:end="7.8913827"
           sodipodi:open="true"
           transform="matrix(0.89075324,0,0,0.89075324,23.354619,19.664929)" />
      </g>
      <g
         id="g3828-3-8-4-4-1-1"
         style="stroke:#000000;stroke-width:4.19476986;stroke-miterlimit:4;stroke-opacity:1;stroke-dasharray:none;display:inline"
         transform="matrix(-0.70710678,-0.70710678,0.70710678,-0.70710678,261.0898,546.65444)">
        <path
           style="fill:none;stroke:#000000;stroke-width:4.19476986;stroke-linecap:round;stroke-linejoin:miter;stroke-miterlimit:4;stroke-opacity:1;stroke-dasharray:none"
           d="m 250.00063,222.13731 -12.1426,0.0374"
           id="path3793-1-2-2-1-9-8"
           inkscape:connector-curvature="0"
           sodipodi:nodetypes="cc" />
        <path
           style="fill:none;stroke:#000000;stroke-width:4.19476986;stroke-linecap:round;stroke-linejoin:miter;stroke-miterlimit:4;stroke-opacity:1;stroke-dasharray:none;display:inline"
           d="m 250.13537,231.11955 -23.41519,0.0131"
           id="path3793-2-6-7-3-1-8-2"
           inkscape:connector-curvature="0"
           sodipodi:nodetypes="cc" />
        <path
           sodipodi:type="arc"
           style="fill:none;stroke:#000000;stroke-width:4.70923901;stroke-linecap:round;stroke-linejoin:round;stroke-miterlimit:4;stroke-opacity:1;stroke-dasharray:none"
           id="path3823-8-7-2-3-6-6"
           sodipodi:cx="255"
           sodipodi:cy="232.36218"
           sodipodi:rx="5"
           sodipodi:ry="5"
           d="m 254.89932,227.3632 c 2.76087,-0.0556 5.04406,2.13744 5.09967,4.89831 0.0556,2.76086 -2.13745,5.04406 -4.89831,5.09966 -0.0959,0.002 -0.19181,0.001 -0.28764,-0.002"
           sodipodi:start="4.6922523"
           sodipodi:end="7.8913827"
           sodipodi:open="true"
           transform="matrix(0.89075324,0,0,0.89075324,23.354619,19.664929)" />
      </g>
    </g>
    <path
       style="fill:#ffffff;fill-opacity:1;stroke:#000000;stroke-width:0;stroke-linecap:round;stroke-miterlimit:4;stroke-opacity:1;stroke-dasharray:none"
       d="m 60.415271,50.119483 c -2.124094,-2.114062 -4.024629,-4.063127 -4.22341,-4.331255 -0.533809,-0.720028 -0.453962,-1.318433 0.22411,-1.679577 0.599325,-0.319203 0.766823,-0.203936 3.214036,2.211767 1.921462,1.89672 2.467688,2.368704 2.796218,2.41615 0.576982,0.08333 1.120057,-0.273412 1.215765,-0.798622 0.04131,-0.226718 0.05843,-3.012254 0.03803,-6.190083 l -0.03708,-5.77787 -0.28609,-0.28463 c -0.263538,-0.262192 -0.381783,-0.282158 -1.5,-0.253275 -4.727453,0.122112 -11.398492,1.84932 -16.336363,4.229673 -2.660582,1.282561 -6.058796,3.343254 -7.640421,4.633186 -0.282081,0.230058 -0.547113,0.418286 -0.588959,0.418286 -0.139263,0 0.916902,-2.886783 1.728567,-4.72464 3.504554,-7.935376 9.406808,-14.609956 16.935033,-19.151029 1.841808,-1.11099 4.991104,-2.627201 7.116193,-3.426051 l 1.80296,-0.677757 1.25954,0.444773 c 4.313381,1.523157 8.837073,4.051525 12.50954,6.991792 1.596605,1.278281 4.754903,4.382312 6.021638,5.918171 2.860612,3.468361 5.18862,7.411564 6.826178,11.562241 0.632206,1.60244 1.214684,3.312845 1.214684,3.56684 0,0.05665 -0.576563,-0.330545 -1.28125,-0.86044 -1.877454,-1.411765 -4.139095,-2.81064 -6.40625,-3.962407 -5.15363,-2.618163 -10.74206,-4.212686 -16.457133,-4.695645 -1.683261,-0.142246 -1.85892,-0.137273 -2.161828,0.0612 -0.181335,0.118815 -0.385043,0.361592 -0.452685,0.539506 -0.07612,0.200196 -0.109718,2.530731 -0.08817,6.11508 l 0.03482,5.791603 0.278472,0.278382 c 0.181715,0.181656 0.430314,0.278381 0.715484,0.278381 0.399855,0 0.643485,-0.204058 2.86542,-2.4 2.259826,-2.233388 2.460034,-2.4 2.883949,-2.4 0.596396,0 1.069175,0.451639 1.069175,1.021369 0,0.368908 -0.407445,0.815809 -4.278819,4.693183 -3.984778,3.990951 -4.308731,4.285448 -4.71409,4.285448 -0.403861,0 -0.713949,-0.277362 -4.297259,-3.84375 l 0,0 z"
       id="path4830"
       inkscape:connector-curvature="0"
       transform="translate(190.21847,162.50432)" />
    <path
       style="fill:#ffffff;fill-opacity:1;stroke:#000000;stroke-width:0;stroke-linecap:round;stroke-miterlimit:4;stroke-opacity:1;stroke-dasharray:none"
       d="m 76.640499,99.858934 c -2.077148,-0.05251 -4.572291,-0.336359 -6.980202,-0.794064 -1.170996,-0.222587 -1.221354,-0.240634 -0.972272,-0.34844 1.928946,-0.834865 2.929908,-1.298695 3.907479,-1.810665 6.584191,-3.44825 12.016641,-8.289155 16.292228,-14.518148 0.569562,-0.829779 0.657466,-1.009132 0.657466,-1.34144 0,-0.730018 0.513354,-0.390499 -7.842161,-5.186595 -2.715466,-1.558688 -3.30274,-1.863196 -3.59335,-1.863196 -0.637415,0 -1.086813,0.504109 -1.017098,1.140924 0.01661,0.151701 0.364047,1.50375 0.772085,3.00455 0.890534,3.275453 0.882829,3.237422 0.72997,3.603269 -0.406863,0.97376 -1.658435,0.882731 -2.032791,-0.14785 -0.07455,-0.205225 -0.777033,-2.772523 -1.56108,-5.705104 -1.002615,-3.750101 -1.408203,-5.402131 -1.367107,-5.568466 0.09981,-0.403985 0.48319,-0.716511 1.104273,-0.900194 0.892577,-0.263977 9.799028,-2.630776 10.320688,-2.742619 0.58974,-0.126439 1.00471,-0.0022 1.278998,0.383039 0.349919,0.491416 0.209895,1.176385 -0.310136,1.517122 -0.110375,0.07232 -1.531769,0.489672 -3.158652,0.927447 -1.626883,0.437776 -3.040728,0.839684 -3.141877,0.893131 -0.510422,0.269704 -0.637147,1.105604 -0.235937,1.556278 0.248258,0.278863 10.223191,6.070639 10.791979,6.266179 0.347982,0.119631 0.834144,0.02619 1.13206,-0.217589 0.23249,-0.190241 0.707796,-1.12492 1.465132,-2.881157 2.032483,-4.71326 3.117396,-9.025177 3.569395,-14.18633 0.176766,-2.018389 0.125976,-6.53415 -0.09434,-8.387531 -0.0774,-0.651134 -0.128507,-1.1961 -0.113572,-1.211035 0.03835,-0.03835 1.219466,1.339382 2.009749,2.344295 1.955364,2.486408 3.420674,4.839311 4.857324,7.799567 3.94429,8.127312 5.1519,16.941617 3.56783,26.041416 l -0.23532,1.35184 -0.84663,0.730291 c -6.360525,5.486481 -14.44601,9.015301 -22.899533,9.99424 -1.21439,0.14063 -4.299389,0.329028 -4.861359,0.296879 -0.170148,-0.0097 -0.707107,-0.02775 -1.193243,-0.04004 z"
       id="path4844"
       inkscape:connector-curvature="0"
       transform="translate(190.21847,162.50432)" />
    <path
       style="fill:#ffffff;fill-opacity:1;stroke:#000000;stroke-width:0;stroke-linecap:round;stroke-miterlimit:4;stroke-opacity:1;stroke-dasharray:none"
       d="m 49.158004,99.787991 c -0.170147,-0.01587 -0.806543,-0.07173 -1.414213,-0.124146 -2.427663,-0.209396 -5.981264,-0.927681 -8.441087,-1.706187 -5.539765,-1.753271 -10.441442,-4.450038 -14.893437,-8.193955 -0.559056,-0.470141 -1.091134,-0.938516 -1.182395,-1.040835 -0.18925,-0.21218 -0.416003,-1.325417 -0.669124,-3.28504 -0.872232,-6.752678 -0.108483,-13.603547 2.239402,-20.087541 1.485887,-4.103474 3.909094,-8.423792 6.63004,-11.820652 0.683285,-0.85302 2.189025,-2.578631 2.220688,-2.544955 0.01338,0.01424 -0.01121,0.244648 -0.05466,0.512023 -0.328826,2.02358 -0.460813,6.701784 -0.258721,9.170232 0.434451,5.306623 1.524334,9.651987 3.666373,14.617844 0.858469,1.990174 1.360435,2.909667 1.718281,3.147521 0.599661,0.398583 0.50093,0.443455 6.102016,-2.773296 2.847089,-1.635107 5.288855,-3.080656 5.426147,-3.212332 0.479264,-0.459657 0.379738,-1.335204 -0.184827,-1.625946 -0.132865,-0.06842 -1.474589,-0.449459 -2.981611,-0.846746 -3.323386,-0.876124 -3.269671,-0.857724 -3.599025,-1.232837 -0.238246,-0.271348 -0.261208,-0.348299 -0.222899,-0.746984 0.05699,-0.593156 0.417742,-0.941107 0.975715,-0.941107 0.443473,0 11.205856,2.859379 11.508321,3.057562 0.301473,0.197532 0.510912,0.69245 0.437798,1.034542 -0.220636,1.03234 -2.911632,10.850857 -3.0305,11.057258 -0.442508,0.768362 -1.368754,0.809053 -1.845737,0.08108 -0.08471,-0.129279 -0.14994,-0.377317 -0.144963,-0.551196 0.005,-0.173879 0.352151,-1.593778 0.771499,-3.15533 0.419348,-1.561554 0.762451,-2.994538 0.762451,-3.184411 0,-0.189874 -0.06208,-0.433851 -0.137947,-0.542173 -0.281622,-0.40207 -0.895008,-0.572241 -1.304174,-0.361814 -0.760219,0.390967 -10.224609,5.887328 -10.391212,6.034604 -0.312544,0.276288 -0.45403,0.671722 -0.371412,1.038043 0.07273,0.322454 0.63295,1.172317 1.768857,2.683365 2.361483,3.141377 5.515527,6.296631 8.718303,8.721644 1.08383,0.820633 3.389857,2.346761 4.590207,3.037799 1.132458,0.651953 3.54667,1.856036 4.684582,2.336425 0.486136,0.20523 0.916706,0.404015 0.956821,0.441743 0.154846,0.145632 -3.432397,0.734514 -5.685598,0.933348 -1.290957,0.113921 -5.415638,0.160875 -6.363961,0.07245 l 0,0 z"
       id="path4846"
       inkscape:connector-curvature="0"
       transform="translate(190.21847,162.50432)" />
  </g>
</svg>
