<?xml version="1.0" encoding="UTF-8" standalone="no"?>
<!-- Created with Inkscape (http://www.inkscape.org/) -->

<svg
   xmlns:dc="http://purl.org/dc/elements/1.1/"
   xmlns:cc="http://creativecommons.org/ns#"
   xmlns:rdf="http://www.w3.org/1999/02/22-rdf-syntax-ns#"
   xmlns:svg="http://www.w3.org/2000/svg"
   xmlns="http://www.w3.org/2000/svg"
   xmlns:sodipodi="http://sodipodi.sourceforge.net/DTD/sodipodi-0.dtd"
   xmlns:inkscape="http://www.inkscape.org/namespaces/inkscape"
   width="130"
   height="130"
   id="svg2"
   version="1.1"
   inkscape:version="0.48.4 r9939"
   sodipodi:docname="11000001.svg">
  <defs
     id="defs4" />
  <sodipodi:namedview
     id="base"
     pagecolor="#ffffff"
     bordercolor="#666666"
     borderopacity="1.0"
     inkscape:pageopacity="0.0"
     inkscape:pageshadow="2"
     inkscape:zoom="2.8284271"
     inkscape:cx="58.221788"
     inkscape:cy="62.29954"
     inkscape:document-units="px"
     inkscape:current-layer="layer1"
     showgrid="true"
     showguides="true"
     inkscape:window-width="1366"
     inkscape:window-height="706"
     inkscape:window-x="-8"
     inkscape:window-y="-8"
     inkscape:window-maximized="1"
     inkscape:snap-to-guides="false"
     inkscape:snap-grids="false"
     fit-margin-top="0"
     fit-margin-left="0"
     fit-margin-right="0"
     fit-margin-bottom="0">
    <inkscape:grid
       type="xygrid"
       id="grid3791"
       empspacing="5"
       visible="true"
       enabled="true"
       snapvisiblegridlinesonly="true"
       originx="-190.21847px"
       originy="-759.85766px" />
    <sodipodi:guide
       position="3.52879,-761.27187"
       orientation="0,744.09448"
       id="guide2999" />
    <sodipodi:guide
       position="553.87601,-759.85766"
       orientation="-1052.3622,0"
       id="guide3001" />
    <sodipodi:guide
       position="553.87601,292.50454"
       orientation="0,-744.09448"
       id="guide3003" />
    <sodipodi:guide
       position="-197.28954,293.73144"
       orientation="1052.3622,0"
       id="guide3005" />
  </sodipodi:namedview>
  <metadata
     id="metadata7">
    <rdf:RDF>
      <cc:Work
         rdf:about="">
        <dc:format>image/svg+xml</dc:format>
        <dc:type
           rdf:resource="http://purl.org/dc/dcmitype/StillImage" />
        <dc:title></dc:title>
      </cc:Work>
    </rdf:RDF>
  </metadata>
  <g
     inkscape:label="Layer 1"
     inkscape:groupmode="layer"
     id="layer1"
     style="display:inline"
     transform="translate(-190.21847,-162.50432)">
    <path
       sodipodi:type="arc"
       style="fill:#ff0000;fill-rule:evenodd;stroke:#000000;stroke-width:2;stroke-linecap:butt;stroke-linejoin:miter;stroke-miterlimit:3.20000005;stroke-opacity:1;stroke-dasharray:none"
       id="path2989"
       sodipodi:cx="362"
       sodipodi:cy="274.36218"
       sodipodi:rx="64"
       sodipodi:ry="64"
       d="m 426,274.36218 c 0,35.34623 -28.65378,64 -64,64 -35.34622,0 -64,-28.65377 -64,-64 0,-35.34622 28.65378,-64 64,-64 35.34622,0 64,28.65378 64,64 z"
       transform="translate(-106.78153,-46.857864)" />
    <g
       style="stroke:#000000;stroke-width:4.19476986;stroke-miterlimit:4;stroke-opacity:1;stroke-dasharray:none;display:inline"
       id="g3788-5-9-8"
       transform="matrix(0,0.47678419,-0.47678419,0,362.67168,91.047383)">
      <path
         sodipodi:nodetypes="cc"
         inkscape:connector-curvature="0"
         id="path3793-17-5-7"
         d="m 250,221.38731 -22.85081,0"
         style="fill:none;stroke:#000000;stroke-width:4.19476986;stroke-linecap:round;stroke-linejoin:miter;stroke-miterlimit:4;stroke-opacity:1;stroke-dasharray:none" />
      <path
         sodipodi:nodetypes="cc"
         inkscape:connector-curvature="0"
         id="path3793-2-1-4-4"
         d="m 250,230.36955 -23.74282,-0.0573"
         style="fill:none;stroke:#000000;stroke-width:4.19476986;stroke-linecap:round;stroke-linejoin:miter;stroke-miterlimit:4;stroke-opacity:1;stroke-dasharray:none;display:inline" />
      <path
         sodipodi:open="true"
         transform="matrix(0.89075324,0,0,0.89075324,33.761566,18.915254)"
         sodipodi:end="7.097452"
         sodipodi:start="5.4835553"
         d="m 258.48486,228.77669 c 1.98021,1.92464 2.02527,5.09014 0.10063,7.07035 -0.0501,0.0515 -0.10124,0.10195 -0.15348,0.15125"
         sodipodi:ry="5"
         sodipodi:rx="5"
         sodipodi:cy="232.36218"
         sodipodi:cx="255"
         id="path3823-1-3-2"
         style="fill:none;stroke:#000000;stroke-width:4.70923901;stroke-linecap:round;stroke-linejoin:round;stroke-miterlimit:4;stroke-opacity:1;stroke-dasharray:none"
         sodipodi:type="arc" />
      <g
         id="g3828-3-5-1-7"
         style="stroke:#000000;stroke-width:4.19476986;stroke-miterlimit:4;stroke-opacity:1;stroke-dasharray:none;display:inline"
         transform="matrix(-0.70710678,0.70710678,-0.70710678,-0.70710678,581.67429,225.54963)">
        <path
           style="fill:none;stroke:#000000;stroke-width:4.19476986;stroke-linecap:round;stroke-linejoin:miter;stroke-miterlimit:4;stroke-opacity:1;stroke-dasharray:none"
           d="m 250.00063,222.13731 -22.65625,-0.0156"
           id="path3793-1-27-2-7"
           inkscape:connector-curvature="0"
           sodipodi:nodetypes="cc" />
        <path
           style="fill:none;stroke:#000000;stroke-width:4.19476986;stroke-linecap:round;stroke-linejoin:miter;stroke-miterlimit:4;stroke-opacity:1;stroke-dasharray:none;display:inline"
           d="m 250.13537,231.11955 -12.20324,0.007"
           id="path3793-2-6-6-3-9"
           inkscape:connector-curvature="0"
           sodipodi:nodetypes="cc" />
        <path
           sodipodi:type="arc"
           style="fill:none;stroke:#000000;stroke-width:4.70923901;stroke-linecap:round;stroke-linejoin:round;stroke-miterlimit:4;stroke-opacity:1;stroke-dasharray:none"
           id="path3823-8-1-3-3"
           sodipodi:cx="255"
           sodipodi:cy="232.36218"
           sodipodi:rx="5"
           sodipodi:ry="5"
           d="m 254.89932,227.3632 c 2.76087,-0.0556 5.04406,2.13744 5.09967,4.89831 0.0556,2.76086 -2.13745,5.04406 -4.89831,5.09966 -0.0959,0.002 -0.19181,0.001 -0.28764,-0.002"
           sodipodi:start="4.6922523"
           sodipodi:end="7.8913827"
           sodipodi:open="true"
           transform="matrix(0.89075324,0,0,0.89075324,23.354619,19.664929)" />
      </g>
      <g
         id="g3828-3-8-4-4-1"
         style="stroke:#000000;stroke-width:4.19476986;stroke-miterlimit:4;stroke-opacity:1;stroke-dasharray:none;display:inline"
         transform="matrix(-0.70710678,-0.70710678,0.70710678,-0.70710678,261.0898,546.65444)">
        <path
           style="fill:none;stroke:#000000;stroke-width:4.19476986;stroke-linecap:round;stroke-linejoin:miter;stroke-miterlimit:4;stroke-opacity:1;stroke-dasharray:none"
           d="m 250.00063,222.13731 -12.1426,0.0374"
           id="path3793-1-2-2-1-9"
           inkscape:connector-curvature="0"
           sodipodi:nodetypes="cc" />
        <path
           style="fill:none;stroke:#000000;stroke-width:4.19476986;stroke-linecap:round;stroke-linejoin:miter;stroke-miterlimit:4;stroke-opacity:1;stroke-dasharray:none;display:inline"
           d="m 250.13537,231.11955 -23.41519,0.0131"
           id="path3793-2-6-7-3-1-8"
           inkscape:connector-curvature="0"
           sodipodi:nodetypes="cc" />
        <path
           sodipodi:type="arc"
           style="fill:none;stroke:#000000;stroke-width:4.70923901;stroke-linecap:round;stroke-linejoin:round;stroke-miterlimit:4;stroke-opacity:1;stroke-dasharray:none"
           id="path3823-8-7-2-3-6"
           sodipodi:cx="255"
           sodipodi:cy="232.36218"
           sodipodi:rx="5"
           sodipodi:ry="5"
           d="m 254.89932,227.3632 c 2.76087,-0.0556 5.04406,2.13744 5.09967,4.89831 0.0556,2.76086 -2.13745,5.04406 -4.89831,5.09966 -0.0959,0.002 -0.19181,0.001 -0.28764,-0.002"
           sodipodi:start="4.6922523"
           sodipodi:end="7.8913827"
           sodipodi:open="true"
           transform="matrix(0.89075324,0,0,0.89075324,23.354619,19.664929)" />
      </g>
    </g>
    <path
       sodipodi:type="arc"
       style="fill:none;stroke:#000000;stroke-width:1.14600551;stroke-linecap:round;stroke-miterlimit:4;stroke-opacity:1;stroke-dasharray:none"
       id="path4432"
       sodipodi:cx="84.781532"
       sodipodi:cy="84.857658"
       sodipodi:rx="25"
       sodipodi:ry="25"
       d="m 85.98532,59.886657 a 25,25 0 1 1 -2.494171,0.0043"
       transform="matrix(1.7451923,0,0,1.7451923,107.03992,94.394045)"
       inkscape:transform-center-y="15.124997"
       sodipodi:start="4.7605591"
       sodipodi:end="10.943936"
       sodipodi:open="true" />
    <path
       sodipodi:type="arc"
       style="fill:none;stroke:#000000;stroke-width:1.14600551;stroke-linecap:round;stroke-miterlimit:4;stroke-opacity:1;stroke-dasharray:none;display:inline"
       id="path4432-3"
       sodipodi:cx="84.781532"
       sodipodi:cy="84.857658"
       sodipodi:rx="25"
       sodipodi:ry="25"
       d="M 85.808464,59.878759 C 99.603929,60.445918 110.32759,72.089125 109.76043,85.88459 109.19327,99.680055 97.550066,110.40372 83.754601,109.83656 69.959136,109.2694 59.235474,97.626192 59.802633,83.830727 60.056316,77.660196 62.58496,71.801933 66.901234,67.384967"
       transform="matrix(-0.87259615,-1.5113809,1.5113809,-0.87259615,213.82643,421.98314)"
       inkscape:transform-center-y="-7.5624996"
       inkscape:transform-center-x="-13.098638"
       sodipodi:start="4.7534778"
       sodipodi:end="10.198647"
       sodipodi:open="true" />
    <path
       sodipodi:type="arc"
       style="fill:none;stroke:#000000;stroke-width:1.14600551;stroke-linecap:round;stroke-miterlimit:4;stroke-opacity:1;stroke-dasharray:none;display:inline"
       id="path4432-7"
       sodipodi:cx="84.781532"
       sodipodi:cy="84.857658"
       sodipodi:rx="25"
       sodipodi:ry="25"
       d="M 102.71624,67.440816 A 25,25 0 1 1 83.556466,59.887692"
       transform="matrix(-0.87259615,1.5113809,-1.5113809,-0.87259615,444.38365,165.70876)"
       inkscape:transform-center-y="-7.5624974"
       inkscape:transform-center-x="13.09863"
       sodipodi:start="5.512435"
       sodipodi:end="10.946552"
       sodipodi:open="true" />
    <g
       style="stroke:#000000;stroke-width:4.19476986;stroke-miterlimit:4;stroke-opacity:1;stroke-dasharray:none;display:inline"
       id="g3788-5-9-8-6"
       transform="matrix(-0.41290722,-0.23839209,0.23839209,-0.41290722,318.7801,388.51832)">
      <path
         sodipodi:nodetypes="cc"
         inkscape:connector-curvature="0"
         id="path3793-17-5-7-3"
         d="m 250,221.38731 -25.07159,0.0334"
         style="fill:none;stroke:#000000;stroke-width:4.19476986;stroke-linecap:round;stroke-linejoin:miter;stroke-miterlimit:4;stroke-opacity:1;stroke-dasharray:none" />
      <path
         sodipodi:nodetypes="cc"
         inkscape:connector-curvature="0"
         id="path3793-2-1-4-4-6"
         d="m 250,230.36955 -25.09225,0.0129"
         style="fill:none;stroke:#000000;stroke-width:4.19476986;stroke-linecap:round;stroke-linejoin:miter;stroke-miterlimit:4;stroke-opacity:1;stroke-dasharray:none;display:inline" />
      <path
         sodipodi:open="true"
         transform="matrix(0.89075324,0,0,0.89075324,33.761566,18.915254)"
         sodipodi:end="7.097452"
         sodipodi:start="5.4835553"
         d="m 258.48486,228.77669 c 1.98021,1.92464 2.02527,5.09014 0.10063,7.07035 -0.0501,0.0515 -0.10124,0.10195 -0.15348,0.15125"
         sodipodi:ry="5"
         sodipodi:rx="5"
         sodipodi:cy="232.36218"
         sodipodi:cx="255"
         id="path3823-1-3-2-1"
         style="fill:none;stroke:#000000;stroke-width:4.70923901;stroke-linecap:round;stroke-linejoin:round;stroke-miterlimit:4;stroke-opacity:1;stroke-dasharray:none"
         sodipodi:type="arc" />
      <g
         id="g3828-3-5-1-7-5"
         style="stroke:#000000;stroke-width:4.19476986;stroke-miterlimit:4;stroke-opacity:1;stroke-dasharray:none;display:inline"
         transform="matrix(-0.70710678,0.70710678,-0.70710678,-0.70710678,581.67429,225.54963)">
        <path
           style="fill:none;stroke:#000000;stroke-width:4.19476986;stroke-linecap:round;stroke-linejoin:miter;stroke-miterlimit:4;stroke-opacity:1;stroke-dasharray:none"
           d="m 250.00063,222.13731 -22.65625,-0.0156"
           id="path3793-1-27-2-7-4"
           inkscape:connector-curvature="0"
           sodipodi:nodetypes="cc" />
        <path
           style="fill:none;stroke:#000000;stroke-width:4.19476986;stroke-linecap:round;stroke-linejoin:miter;stroke-miterlimit:4;stroke-opacity:1;stroke-dasharray:none;display:inline"
           d="m 250.13537,231.11955 -12.20324,0.007"
           id="path3793-2-6-6-3-9-2"
           inkscape:connector-curvature="0"
           sodipodi:nodetypes="cc" />
        <path
           sodipodi:type="arc"
           style="fill:none;stroke:#000000;stroke-width:4.70923901;stroke-linecap:round;stroke-linejoin:round;stroke-miterlimit:4;stroke-opacity:1;stroke-dasharray:none"
           id="path3823-8-1-3-3-0"
           sodipodi:cx="255"
           sodipodi:cy="232.36218"
           sodipodi:rx="5"
           sodipodi:ry="5"
           d="m 254.89932,227.3632 c 2.76087,-0.0556 5.04406,2.13744 5.09967,4.89831 0.0556,2.76086 -2.13745,5.04406 -4.89831,5.09966 -0.0959,0.002 -0.19181,0.001 -0.28764,-0.002"
           sodipodi:start="4.6922523"
           sodipodi:end="7.8913827"
           sodipodi:open="true"
           transform="matrix(0.89075324,0,0,0.89075324,23.354619,19.664929)" />
      </g>
      <g
         id="g3828-3-8-4-4-1-9"
         style="stroke:#000000;stroke-width:4.19476986;stroke-miterlimit:4;stroke-opacity:1;stroke-dasharray:none;display:inline"
         transform="matrix(-0.70710678,-0.70710678,0.70710678,-0.70710678,261.0898,546.65444)">
        <path
           style="fill:none;stroke:#000000;stroke-width:4.19476986;stroke-linecap:round;stroke-linejoin:miter;stroke-miterlimit:4;stroke-opacity:1;stroke-dasharray:none"
           d="m 250.00063,222.13731 -12.1426,0.0374"
           id="path3793-1-2-2-1-9-7"
           inkscape:connector-curvature="0"
           sodipodi:nodetypes="cc" />
        <path
           style="fill:none;stroke:#000000;stroke-width:4.19476986;stroke-linecap:round;stroke-linejoin:miter;stroke-miterlimit:4;stroke-opacity:1;stroke-dasharray:none;display:inline"
           d="m 250.13537,231.11955 -23.41519,0.0131"
           id="path3793-2-6-7-3-1-8-3"
           inkscape:connector-curvature="0"
           sodipodi:nodetypes="cc" />
        <path
           sodipodi:type="arc"
           style="fill:none;stroke:#000000;stroke-width:4.70923901;stroke-linecap:round;stroke-linejoin:round;stroke-miterlimit:4;stroke-opacity:1;stroke-dasharray:none"
           id="path3823-8-7-2-3-6-72"
           sodipodi:cx="255"
           sodipodi:cy="232.36218"
           sodipodi:rx="5"
           sodipodi:ry="5"
           d="m 254.89932,227.3632 c 2.76087,-0.0556 5.04406,2.13744 5.09967,4.89831 0.0556,2.76086 -2.13745,5.04406 -4.89831,5.09966 -0.0959,0.002 -0.19181,0.001 -0.28764,-0.002"
           sodipodi:start="4.6922523"
           sodipodi:end="7.8913827"
           sodipodi:open="true"
           transform="matrix(0.89075324,0,0,0.89075324,23.354619,19.664929)" />
      </g>
    </g>
    <g
       style="stroke:#000000;stroke-width:4.19476986;stroke-miterlimit:4;stroke-opacity:1;stroke-dasharray:none;display:inline"
       id="g3788-5-9-8-60"
       transform="matrix(0,-0.47678419,-0.47678419,0,362.70829,368.53521)">
      <path
         sodipodi:nodetypes="cc"
         inkscape:connector-curvature="0"
         id="path3793-17-5-7-1"
         d="m 250,221.38731 -26.52734,-0.0696"
         style="fill:none;stroke:#000000;stroke-width:4.19476986;stroke-linecap:round;stroke-linejoin:miter;stroke-miterlimit:4;stroke-opacity:1;stroke-dasharray:none" />
      <path
         sodipodi:nodetypes="cc"
         inkscape:connector-curvature="0"
         id="path3793-2-1-4-4-65"
         d="m 250,230.36955 -26.75781,0.0737"
         style="fill:none;stroke:#000000;stroke-width:4.19476986;stroke-linecap:round;stroke-linejoin:miter;stroke-miterlimit:4;stroke-opacity:1;stroke-dasharray:none;display:inline" />
      <path
         sodipodi:open="true"
         transform="matrix(0.89075324,0,0,0.89075324,33.761566,18.915254)"
         sodipodi:end="7.097452"
         sodipodi:start="5.4835553"
         d="m 258.48486,228.77669 c 1.98021,1.92464 2.02527,5.09014 0.10063,7.07035 -0.0501,0.0515 -0.10124,0.10195 -0.15348,0.15125"
         sodipodi:ry="5"
         sodipodi:rx="5"
         sodipodi:cy="232.36218"
         sodipodi:cx="255"
         id="path3823-1-3-2-7"
         style="fill:none;stroke:#000000;stroke-width:4.70923901;stroke-linecap:round;stroke-linejoin:round;stroke-miterlimit:4;stroke-opacity:1;stroke-dasharray:none"
         sodipodi:type="arc" />
      <g
         id="g3828-3-5-1-7-54"
         style="stroke:#000000;stroke-width:4.19476986;stroke-miterlimit:4;stroke-opacity:1;stroke-dasharray:none;display:inline"
         transform="matrix(-0.70710678,0.70710678,-0.70710678,-0.70710678,581.67429,225.54963)">
        <path
           style="fill:none;stroke:#000000;stroke-width:4.19476986;stroke-linecap:round;stroke-linejoin:miter;stroke-miterlimit:4;stroke-opacity:1;stroke-dasharray:none"
           d="m 250.00063,222.13731 -22.65625,-0.0156"
           id="path3793-1-27-2-7-1"
           inkscape:connector-curvature="0"
           sodipodi:nodetypes="cc" />
        <path
           style="fill:none;stroke:#000000;stroke-width:4.19476986;stroke-linecap:round;stroke-linejoin:miter;stroke-miterlimit:4;stroke-opacity:1;stroke-dasharray:none;display:inline"
           d="m 250.13537,231.11955 -12.20324,0.007"
           id="path3793-2-6-6-3-9-20"
           inkscape:connector-curvature="0"
           sodipodi:nodetypes="cc" />
        <path
           sodipodi:type="arc"
           style="fill:none;stroke:#000000;stroke-width:4.70923901;stroke-linecap:round;stroke-linejoin:round;stroke-miterlimit:4;stroke-opacity:1;stroke-dasharray:none"
           id="path3823-8-1-3-3-01"
           sodipodi:cx="255"
           sodipodi:cy="232.36218"
           sodipodi:rx="5"
           sodipodi:ry="5"
           d="m 254.89932,227.3632 c 2.76087,-0.0556 5.04406,2.13744 5.09967,4.89831 0.0556,2.76086 -2.13745,5.04406 -4.89831,5.09966 -0.0959,0.002 -0.19181,0.001 -0.28764,-0.002"
           sodipodi:start="4.6922523"
           sodipodi:end="7.8913827"
           sodipodi:open="true"
           transform="matrix(0.89075324,0,0,0.89075324,23.354619,19.664929)" />
      </g>
      <g
         id="g3828-3-8-4-4-1-4"
         style="stroke:#000000;stroke-width:4.19476986;stroke-miterlimit:4;stroke-opacity:1;stroke-dasharray:none;display:inline"
         transform="matrix(-0.70710678,-0.70710678,0.70710678,-0.70710678,261.0898,546.65444)">
        <path
           style="fill:none;stroke:#000000;stroke-width:4.19476986;stroke-linecap:round;stroke-linejoin:miter;stroke-miterlimit:4;stroke-opacity:1;stroke-dasharray:none"
           d="m 250.00063,222.13731 -12.1426,0.0374"
           id="path3793-1-2-2-1-9-6"
           inkscape:connector-curvature="0"
           sodipodi:nodetypes="cc" />
        <path
           style="fill:none;stroke:#000000;stroke-width:4.19476986;stroke-linecap:round;stroke-linejoin:miter;stroke-miterlimit:4;stroke-opacity:1;stroke-dasharray:none;display:inline"
           d="m 250.13537,231.11955 -23.41519,0.0131"
           id="path3793-2-6-7-3-1-8-07"
           inkscape:connector-curvature="0"
           sodipodi:nodetypes="cc" />
        <path
           sodipodi:type="arc"
           style="fill:none;stroke:#000000;stroke-width:4.70923901;stroke-linecap:round;stroke-linejoin:round;stroke-miterlimit:4;stroke-opacity:1;stroke-dasharray:none"
           id="path3823-8-7-2-3-6-1"
           sodipodi:cx="255"
           sodipodi:cy="232.36218"
           sodipodi:rx="5"
           sodipodi:ry="5"
           d="m 254.89932,227.3632 c 2.76087,-0.0556 5.04406,2.13744 5.09967,4.89831 0.0556,2.76086 -2.13745,5.04406 -4.89831,5.09966 -0.0959,0.002 -0.19181,0.001 -0.28764,-0.002"
           sodipodi:start="4.6922523"
           sodipodi:end="7.8913827"
           sodipodi:open="true"
           transform="matrix(0.89075324,0,0,0.89075324,23.354619,19.664929)" />
      </g>
    </g>
    <g
       style="stroke:#000000;stroke-width:4.19476986;stroke-miterlimit:4;stroke-opacity:1;stroke-dasharray:none;display:inline"
       id="g3788-5-9-8-7"
       transform="matrix(0.41290722,-0.23839209,0.23839209,0.41290722,83.766546,202.40664)">
      <path
         sodipodi:nodetypes="cc"
         inkscape:connector-curvature="0"
         id="path3793-17-5-7-7"
         d="m 250,221.38731 -24.80738,-0.0322"
         style="fill:none;stroke:#000000;stroke-width:4.19476986;stroke-linecap:round;stroke-linejoin:miter;stroke-miterlimit:4;stroke-opacity:1;stroke-dasharray:none" />
      <path
         sodipodi:nodetypes="cc"
         inkscape:connector-curvature="0"
         id="path3793-2-1-4-4-7"
         d="m 250,230.36955 -24.56501,0.008"
         style="fill:none;stroke:#000000;stroke-width:4.19476986;stroke-linecap:round;stroke-linejoin:miter;stroke-miterlimit:4;stroke-opacity:1;stroke-dasharray:none;display:inline" />
      <path
         sodipodi:open="true"
         transform="matrix(0.89075324,0,0,0.89075324,33.761566,18.915254)"
         sodipodi:end="7.097452"
         sodipodi:start="5.4835553"
         d="m 258.48486,228.77669 c 1.98021,1.92464 2.02527,5.09014 0.10063,7.07035 -0.0501,0.0515 -0.10124,0.10195 -0.15348,0.15125"
         sodipodi:ry="5"
         sodipodi:rx="5"
         sodipodi:cy="232.36218"
         sodipodi:cx="255"
         id="path3823-1-3-2-3"
         style="fill:none;stroke:#000000;stroke-width:4.70923901;stroke-linecap:round;stroke-linejoin:round;stroke-miterlimit:4;stroke-opacity:1;stroke-dasharray:none"
         sodipodi:type="arc" />
      <g
         id="g3828-3-5-1-7-3"
         style="stroke:#000000;stroke-width:4.19476986;stroke-miterlimit:4;stroke-opacity:1;stroke-dasharray:none;display:inline"
         transform="matrix(-0.70710678,0.70710678,-0.70710678,-0.70710678,581.67429,225.54963)">
        <path
           style="fill:none;stroke:#000000;stroke-width:4.19476986;stroke-linecap:round;stroke-linejoin:miter;stroke-miterlimit:4;stroke-opacity:1;stroke-dasharray:none"
           d="m 250.00063,222.13731 -22.65625,-0.0156"
           id="path3793-1-27-2-7-5"
           inkscape:connector-curvature="0"
           sodipodi:nodetypes="cc" />
        <path
           style="fill:none;stroke:#000000;stroke-width:4.19476986;stroke-linecap:round;stroke-linejoin:miter;stroke-miterlimit:4;stroke-opacity:1;stroke-dasharray:none;display:inline"
           d="m 250.13537,231.11955 -12.20324,0.007"
           id="path3793-2-6-6-3-9-9"
           inkscape:connector-curvature="0"
           sodipodi:nodetypes="cc" />
        <path
           sodipodi:type="arc"
           style="fill:none;stroke:#000000;stroke-width:4.70923901;stroke-linecap:round;stroke-linejoin:round;stroke-miterlimit:4;stroke-opacity:1;stroke-dasharray:none"
           id="path3823-8-1-3-3-98"
           sodipodi:cx="255"
           sodipodi:cy="232.36218"
           sodipodi:rx="5"
           sodipodi:ry="5"
           d="m 254.89932,227.3632 c 2.76087,-0.0556 5.04406,2.13744 5.09967,4.89831 0.0556,2.76086 -2.13745,5.04406 -4.89831,5.09966 -0.0959,0.002 -0.19181,0.001 -0.28764,-0.002"
           sodipodi:start="4.6922523"
           sodipodi:end="7.8913827"
           sodipodi:open="true"
           transform="matrix(0.89075324,0,0,0.89075324,23.354619,19.664929)" />
      </g>
      <g
         id="g3828-3-8-4-4-1-1"
         style="stroke:#000000;stroke-width:4.19476986;stroke-miterlimit:4;stroke-opacity:1;stroke-dasharray:none;display:inline"
         transform="matrix(-0.70710678,-0.70710678,0.70710678,-0.70710678,261.0898,546.65444)">
        <path
           style="fill:none;stroke:#000000;stroke-width:4.19476986;stroke-linecap:round;stroke-linejoin:miter;stroke-miterlimit:4;stroke-opacity:1;stroke-dasharray:none"
           d="m 250.00063,222.13731 -12.1426,0.0374"
           id="path3793-1-2-2-1-9-8"
           inkscape:connector-curvature="0"
           sodipodi:nodetypes="cc" />
        <path
           style="fill:none;stroke:#000000;stroke-width:4.19476986;stroke-linecap:round;stroke-linejoin:miter;stroke-miterlimit:4;stroke-opacity:1;stroke-dasharray:none;display:inline"
           d="m 250.13537,231.11955 -23.41519,0.0131"
           id="path3793-2-6-7-3-1-8-2"
           inkscape:connector-curvature="0"
           sodipodi:nodetypes="cc" />
        <path
           sodipodi:type="arc"
           style="fill:none;stroke:#000000;stroke-width:4.70923901;stroke-linecap:round;stroke-linejoin:round;stroke-miterlimit:4;stroke-opacity:1;stroke-dasharray:none"
           id="path3823-8-7-2-3-6-6"
           sodipodi:cx="255"
           sodipodi:cy="232.36218"
           sodipodi:rx="5"
           sodipodi:ry="5"
           d="m 254.89932,227.3632 c 2.76087,-0.0556 5.04406,2.13744 5.09967,4.89831 0.0556,2.76086 -2.13745,5.04406 -4.89831,5.09966 -0.0959,0.002 -0.19181,0.001 -0.28764,-0.002"
           sodipodi:start="4.6922523"
           sodipodi:end="7.8913827"
           sodipodi:open="true"
           transform="matrix(0.89075324,0,0,0.89075324,23.354619,19.664929)" />
      </g>
    </g>
    <path
       sodipodi:type="arc"
       style="fill:none;stroke:#000000;stroke-width:1.14600551;stroke-linecap:round;stroke-miterlimit:4;stroke-opacity:1;stroke-dasharray:none;display:inline"
       id="path4432-7-3"
       sodipodi:cx="84.781532"
       sodipodi:cy="84.857658"
       sodipodi:rx="25"
       sodipodi:ry="25"
       d="m 85.949622,59.884962 c 5.373509,0.251344 10.522626,2.229237 14.682568,5.639907"
       transform="matrix(-0.87259615,1.5113809,-1.5113809,-0.87259615,444.25891,165.9618)"
       inkscape:transform-center-y="-7.5624974"
       inkscape:transform-center-x="13.09863"
       sodipodi:start="4.7591296"
       sodipodi:end="5.3991376"
       sodipodi:open="true" />
    <path
       sodipodi:type="arc"
       style="fill:none;stroke:#000000;stroke-width:1.14600551;stroke-linecap:round;stroke-miterlimit:4;stroke-opacity:1;stroke-dasharray:none;display:inline"
       id="path4432-3-0"
       sodipodi:cx="84.781532"
       sodipodi:cy="84.857658"
       sodipodi:rx="25"
       sodipodi:ry="25"
       d="m 69.094144,65.392154 c 4.042212,-3.257647 8.998319,-5.176088 14.180385,-5.489033"
       transform="matrix(-0.87259615,-1.5113809,1.5113809,-0.87259615,213.87668,421.95534)"
       inkscape:transform-center-y="-7.5624996"
       inkscape:transform-center-x="-13.098638"
       sodipodi:start="4.0340565"
       sodipodi:end="4.6520723"
       sodipodi:open="true" />
    <path
       style="fill:#ffffff;fill-opacity:1;stroke:#000000;stroke-width:0;stroke-linecap:round;stroke-miterlimit:4;stroke-opacity:1;stroke-dasharray:none"
       d="m 60.415271,50.119483 c -2.124094,-2.114062 -4.024629,-4.063127 -4.22341,-4.331255 -0.533809,-0.720028 -0.453962,-1.318433 0.22411,-1.679577 0.599325,-0.319203 0.766823,-0.203936 3.214036,2.211767 1.921462,1.89672 2.467688,2.368704 2.796218,2.41615 0.576982,0.08333 1.120057,-0.273412 1.215765,-0.798622 0.04131,-0.226718 0.05843,-3.012254 0.03803,-6.190083 l -0.03708,-5.77787 -0.28609,-0.28463 c -0.263538,-0.262192 -0.381783,-0.282158 -1.5,-0.253275 -4.727453,0.122112 -11.398492,1.84932 -16.336363,4.229673 -2.660582,1.282561 -6.058796,3.343254 -7.640421,4.633186 -0.282081,0.230058 -0.547113,0.418286 -0.588959,0.418286 -0.139263,0 0.916902,-2.886783 1.728567,-4.72464 3.504554,-7.935376 9.406808,-14.609956 16.935033,-19.151029 1.841808,-1.11099 4.991104,-2.627201 7.116193,-3.426051 l 1.80296,-0.677757 1.25954,0.444773 c 4.313381,1.523157 8.837073,4.051525 12.50954,6.991792 1.596605,1.278281 4.754903,4.382312 6.021638,5.918171 2.860612,3.468361 5.18862,7.411564 6.826178,11.562241 0.632206,1.60244 1.214684,3.312845 1.214684,3.56684 0,0.05665 -0.576563,-0.330545 -1.28125,-0.86044 -1.877454,-1.411765 -4.139095,-2.81064 -6.40625,-3.962407 -5.15363,-2.618163 -10.74206,-4.212686 -16.457133,-4.695645 -1.683261,-0.142246 -1.85892,-0.137273 -2.161828,0.0612 -0.181335,0.118815 -0.385043,0.361592 -0.452685,0.539506 -0.07612,0.200196 -0.109718,2.530731 -0.08817,6.11508 l 0.03482,5.791603 0.278472,0.278382 c 0.181715,0.181656 0.430314,0.278381 0.715484,0.278381 0.399855,0 0.643485,-0.204058 2.86542,-2.4 2.259826,-2.233388 2.460034,-2.4 2.883949,-2.4 0.596396,0 1.069175,0.451639 1.069175,1.021369 0,0.368908 -0.407445,0.815809 -4.278819,4.693183 -3.984778,3.990951 -4.308731,4.285448 -4.71409,4.285448 -0.403861,0 -0.713949,-0.277362 -4.297259,-3.84375 l 0,0 z"
       id="path4830"
       inkscape:connector-curvature="0"
       transform="translate(190.21847,162.50432)" />
    <path
       style="fill:#ffffff;fill-opacity:1;stroke:#000000;stroke-width:0;stroke-linecap:round;stroke-miterlimit:4;stroke-opacity:1;stroke-dasharray:none"
       d="m 74.705439,99.750639 c -2.085708,-0.162847 -5.828408,-0.765807 -5.663958,-0.91248 0.0558,-0.04977 0.751097,-0.381148 1.545101,-0.736395 3.878908,-1.73547 8.264362,-4.686374 11.771687,-7.920984 2.118386,-1.95367 4.966977,-5.303623 6.509377,-7.655047 0.684306,-1.043241 0.784703,-1.388025 0.562644,-1.93223 -0.147871,-0.362391 -0.781129,-0.764702 -5.477276,-3.479727 -4.635666,-2.680058 -5.37895,-3.071108 -5.852369,-3.079001 -0.630279,-0.01051 -1.020206,0.345848 -1.020206,0.932372 0,0.193169 0.33078,1.579125 0.735067,3.079901 0.404288,1.500777 0.771106,2.883858 0.815153,3.073514 0.148478,0.63932 -0.437644,1.342671 -1.118886,1.342671 -0.09756,0 -0.343678,-0.154687 -0.546919,-0.34375 -0.338055,-0.314471 -0.49837,-0.825183 -1.882197,-5.996103 -1.449155,-5.415025 -1.504688,-5.667787 -1.322605,-6.019895 0.248173,-0.479914 0.343725,-0.512115 5.945387,-2.003642 6.043452,-1.609161 5.799491,-1.557076 6.23601,-1.331345 0.716006,0.370262 0.770337,1.314104 0.100895,1.752739 -0.16459,0.107844 -1.633352,0.554504 -3.263915,0.992579 -3.221749,0.86557 -3.575368,1.039146 -3.570211,1.752456 0.0015,0.211454 0.09997,0.505971 0.21875,0.654484 0.250917,0.313714 10.430556,6.209427 10.943659,6.338207 0.218657,0.05488 0.496378,0.01433 0.760604,-0.111052 0.347005,-0.164665 0.52166,-0.419809 1.050648,-1.534836 2.154763,-4.54192 3.477438,-9.141897 4.10458,-14.274842 0.269558,-2.206246 0.305171,-7.488152 0.06436,-9.545299 -0.08742,-0.746789 -0.138547,-1.378197 -0.113617,-1.403128 0.08001,-0.08001 2.156443,2.46495 3.195216,3.916175 3.409382,4.763113 5.813142,10.271885 7.010652,16.066597 0.6825,3.302543 0.81438,4.693189 0.81473,8.590655 3.8e-4,3.607375 -0.1009,4.857403 -0.63,7.779625 l -0.19774,1.092127 -0.83106,0.731552 c -2.84643,2.505608 -7.016123,5.124687 -10.688541,6.713718 -5.575949,2.412675 -11.32223,3.590367 -17.25378,3.53614 -1.313805,-0.01201 -2.641862,-0.0416 -2.951237,-0.06576 z"
       id="path4834"
       inkscape:connector-curvature="0"
       transform="translate(190.21847,162.50432)" />
    <path
       style="fill:#ffffff;fill-opacity:1;stroke:#000000;stroke-width:0;stroke-linecap:round;stroke-miterlimit:4;stroke-opacity:1;stroke-dasharray:none"
       d="M 48.767939,99.764122 C 40.861585,98.9905 34.442704,96.757486 28.244698,92.624452 26.83113,91.681839 23.888846,89.383803 23.350493,88.801893 22.605034,87.99612 22.015232,81.41657 22.31898,77.294825 c 0.581955,-7.896927 2.874759,-14.646843 7.13974,-21.019092 1.326798,-1.982349 4.124567,-5.45815 4.120187,-5.118702 -8.43e-4,0.06529 -0.08406,0.962452 -0.184936,1.993702 -0.664272,6.79109 0.344134,13.962547 2.873795,20.4375 0.757651,1.939294 2.135484,4.713274 2.415517,4.863144 0.650188,0.347969 0.944742,0.214838 6.209656,-2.806626 2.81875,-1.617644 5.251562,-3.08276 5.40625,-3.255814 0.154687,-0.173055 0.28125,-0.477121 0.28125,-0.675704 0,-0.74363 -0.359287,-0.93853 -3,-1.62739 -3.593252,-0.93734 -3.968002,-1.073145 -4.20016,-1.522092 -0.360272,-0.696686 0.101547,-1.475518 0.874927,-1.475518 0.233621,0 2.638309,0.592155 5.34375,1.315902 6.820011,1.824455 6.206734,1.623717 6.437201,2.107013 0.192873,0.404459 0.168219,0.521838 -1.134508,5.401514 -1.705523,6.388439 -1.743533,6.503983 -2.220693,6.750731 -0.698757,0.361342 -1.475517,-0.101513 -1.475517,-0.879231 0,-0.235989 0.3375,-1.683466 0.75,-3.216616 0.733806,-2.727356 0.829903,-3.250641 0.672352,-3.661213 -0.114882,-0.299378 -0.776432,-0.600452 -1.126381,-0.512621 -0.506295,0.127073 -10.462993,5.930609 -10.775069,6.280546 -0.436182,0.489102 -0.278061,1.01007 0.739406,2.436157 2.066979,2.897086 5.037883,6.141657 7.556492,8.252565 3.273116,2.743279 7.220482,5.208337 10.893257,6.802644 0.768656,0.333663 1.38651,0.617708 1.373008,0.631211 -0.06396,0.06396 -2.796488,0.563906 -4.020565,0.735602 -1.307307,0.183372 -7.319094,0.347235 -8.5,0.231685 l 0,0 z"
       id="path4838"
       inkscape:connector-curvature="0"
       transform="translate(190.21847,162.50432)" />
    <path
       style="fill:#ffffff;fill-opacity:1;stroke:#000000;stroke-width:0;stroke-linecap:round;stroke-miterlimit:4;stroke-opacity:1;stroke-dasharray:none"
       d="m 60.997227,122.39221 c -8.734937,-0.82995 -16.48533,-4.01562 -23.332901,-9.59063 -1.296607,-1.05564 -4.495535,-4.24356 -5.584684,-5.56546 -2.770061,-3.36203 -4.854971,-6.77962 -6.515453,-10.680148 -0.541039,-1.270919 -1.511668,-3.98464 -1.511668,-4.226377 0,-0.07804 0.288391,0.09403 0.729204,0.435086 5.959989,4.611171 13.322398,7.694649 20.940864,8.770319 3.494297,0.49336 7.734787,0.54122 11.387174,0.1285 2.075763,-0.23457 5.685284,-0.95523 6.080128,-1.21394 0.464145,-0.30412 0.452027,-0.11536 0.465044,-7.243779 0.01082,-5.926069 -0.0029,-6.658412 -0.129662,-6.903477 -0.203898,-0.394297 -0.503038,-0.516396 -1.148156,-0.468641 -0.09269,0.0069 -1.210275,1.045302 -2.483519,2.307646 -1.273244,1.262343 -2.423068,2.336262 -2.555166,2.386486 -0.956686,0.363731 -1.8147,-0.585449 -1.339628,-1.481968 0.06956,-0.131273 1.968807,-2.074413 4.220543,-4.318088 4.383189,-4.367497 4.337656,-4.330063 4.946697,-4.066792 0.433442,0.187365 8.520508,8.336283 8.597577,8.663334 0.148812,0.631507 -0.390193,1.294828 -1.052159,1.294828 -0.511039,0 -0.765174,-0.211699 -3.183136,-2.651623 -1.069499,-1.079213 -2.053148,-2.010003 -2.185887,-2.068423 -0.574111,-0.252673 -1.302822,0.1347 -1.42847,0.759356 -0.03237,0.160916 -0.03235,3.176244 4.6e-5,6.700729 0.04672,5.083639 0.08334,6.456632 0.17718,6.642692 0.190791,0.37831 0.620062,0.56799 1.934529,0.85483 2.366566,0.51642 4.345806,0.81257 6.580503,0.98462 1.512022,0.11641 4.907441,0.11761 6.456778,0.002 8.759592,-0.65207 16.975355,-3.759066 23.975335,-9.06688 0.23092,-0.175094 0.41985,-0.279188 0.41985,-0.231321 0,0.152826 -0.70566,2.146976 -1.14811,3.244469 -2.21736,5.500222 -5.221551,10.044352 -9.410678,14.234552 -2.19202,2.19259 -4.126357,3.78927 -6.544358,5.40199 -5.979386,3.98804 -12.669756,6.32794 -19.931572,6.97092 -1.778904,0.1575 -5.743626,0.15479 -7.426245,-0.005 l 0,0 z"
       id="path4840"
       inkscape:connector-curvature="0"
       transform="translate(190.21847,162.50432)" />
  </g>
</svg>
