<?xml version="1.0" encoding="UTF-8" standalone="no"?>
<!-- Created with Inkscape (http://www.inkscape.org/) -->

<svg
   xmlns:dc="http://purl.org/dc/elements/1.1/"
   xmlns:cc="http://creativecommons.org/ns#"
   xmlns:rdf="http://www.w3.org/1999/02/22-rdf-syntax-ns#"
   xmlns:svg="http://www.w3.org/2000/svg"
   xmlns="http://www.w3.org/2000/svg"
   xmlns:sodipodi="http://sodipodi.sourceforge.net/DTD/sodipodi-0.dtd"
   xmlns:inkscape="http://www.inkscape.org/namespaces/inkscape"
   width="130"
   height="130"
   id="svg2"
   version="1.1"
   inkscape:version="0.48.4 r9939"
   sodipodi:docname="11101011.svg">
  <defs
     id="defs4" />
  <sodipodi:namedview
     id="base"
     pagecolor="#ffffff"
     bordercolor="#666666"
     borderopacity="1.0"
     inkscape:pageopacity="0.0"
     inkscape:pageshadow="2"
     inkscape:zoom="4"
     inkscape:cx="76.298624"
     inkscape:cy="47.191273"
     inkscape:document-units="px"
     inkscape:current-layer="layer1"
     showgrid="true"
     showguides="true"
     inkscape:window-width="1366"
     inkscape:window-height="706"
     inkscape:window-x="-8"
     inkscape:window-y="-8"
     inkscape:window-maximized="1"
     inkscape:snap-to-guides="false"
     inkscape:snap-grids="false"
     fit-margin-top="0"
     fit-margin-left="0"
     fit-margin-right="0"
     fit-margin-bottom="0">
    <inkscape:grid
       type="xygrid"
       id="grid3791"
       empspacing="5"
       visible="true"
       enabled="true"
       snapvisiblegridlinesonly="true"
       originx="-190.21847px"
       originy="-759.85766px" />
    <sodipodi:guide
       position="3.52879,-761.27187"
       orientation="0,744.09448"
       id="guide2999" />
    <sodipodi:guide
       position="553.87601,-759.85766"
       orientation="-1052.3622,0"
       id="guide3001" />
    <sodipodi:guide
       position="553.87601,292.50454"
       orientation="0,-744.09448"
       id="guide3003" />
    <sodipodi:guide
       position="-197.28954,293.73144"
       orientation="1052.3622,0"
       id="guide3005" />
  </sodipodi:namedview>
  <metadata
     id="metadata7">
    <rdf:RDF>
      <cc:Work
         rdf:about="">
        <dc:format>image/svg+xml</dc:format>
        <dc:type
           rdf:resource="http://purl.org/dc/dcmitype/StillImage" />
        <dc:title></dc:title>
      </cc:Work>
    </rdf:RDF>
  </metadata>
  <g
     inkscape:label="Layer 1"
     inkscape:groupmode="layer"
     id="layer1"
     style="display:inline"
     transform="translate(-190.21847,-162.50432)">
    <path
       sodipodi:type="arc"
       style="fill:#ff0000;fill-rule:evenodd;stroke:#000000;stroke-width:2;stroke-linecap:butt;stroke-linejoin:miter;stroke-miterlimit:3.20000005;stroke-opacity:1;stroke-dasharray:none"
       id="path2989"
       sodipodi:cx="362"
       sodipodi:cy="274.36218"
       sodipodi:rx="64"
       sodipodi:ry="64"
       d="m 426,274.36218 c 0,35.34623 -28.65378,64 -64,64 -35.34622,0 -64,-28.65377 -64,-64 0,-35.34622 28.65378,-64 64,-64 35.34622,0 64,28.65378 64,64 z"
       transform="translate(-106.78153,-46.857864)" />
    <g
       style="stroke:#000000;stroke-width:4.19476986;stroke-miterlimit:4;stroke-opacity:1;stroke-dasharray:none;display:inline"
       id="g3788-5-9-8"
       transform="matrix(0,0.47678419,-0.47678419,0,362.67168,91.047383)">
      <path
         sodipodi:nodetypes="cc"
         inkscape:connector-curvature="0"
         id="path3793-17-5-7"
         d="m 250,221.38731 -22.85081,0"
         style="fill:none;stroke:#000000;stroke-width:4.19476986;stroke-linecap:round;stroke-linejoin:miter;stroke-miterlimit:4;stroke-opacity:1;stroke-dasharray:none" />
      <path
         sodipodi:nodetypes="cc"
         inkscape:connector-curvature="0"
         id="path3793-2-1-4-4"
         d="m 250,230.36955 -23.74282,-0.0573"
         style="fill:none;stroke:#000000;stroke-width:4.19476986;stroke-linecap:round;stroke-linejoin:miter;stroke-miterlimit:4;stroke-opacity:1;stroke-dasharray:none;display:inline" />
      <path
         sodipodi:open="true"
         transform="matrix(0.89075324,0,0,0.89075324,33.761566,18.915254)"
         sodipodi:end="7.097452"
         sodipodi:start="5.4835553"
         d="m 258.48486,228.77669 c 1.98021,1.92464 2.02527,5.09014 0.10063,7.07035 -0.0501,0.0515 -0.10124,0.10195 -0.15348,0.15125"
         sodipodi:ry="5"
         sodipodi:rx="5"
         sodipodi:cy="232.36218"
         sodipodi:cx="255"
         id="path3823-1-3-2"
         style="fill:none;stroke:#000000;stroke-width:4.70923901;stroke-linecap:round;stroke-linejoin:round;stroke-miterlimit:4;stroke-opacity:1;stroke-dasharray:none"
         sodipodi:type="arc" />
      <g
         id="g3828-3-5-1-7"
         style="stroke:#000000;stroke-width:4.19476986;stroke-miterlimit:4;stroke-opacity:1;stroke-dasharray:none;display:inline"
         transform="matrix(-0.70710678,0.70710678,-0.70710678,-0.70710678,581.67429,225.54963)">
        <path
           style="fill:none;stroke:#000000;stroke-width:4.19476986;stroke-linecap:round;stroke-linejoin:miter;stroke-miterlimit:4;stroke-opacity:1;stroke-dasharray:none"
           d="m 250.00063,222.13731 -22.65625,-0.0156"
           id="path3793-1-27-2-7"
           inkscape:connector-curvature="0"
           sodipodi:nodetypes="cc" />
        <path
           style="fill:none;stroke:#000000;stroke-width:4.19476986;stroke-linecap:round;stroke-linejoin:miter;stroke-miterlimit:4;stroke-opacity:1;stroke-dasharray:none;display:inline"
           d="m 250.13537,231.11955 -12.20324,0.007"
           id="path3793-2-6-6-3-9"
           inkscape:connector-curvature="0"
           sodipodi:nodetypes="cc" />
        <path
           sodipodi:type="arc"
           style="fill:none;stroke:#000000;stroke-width:4.70923901;stroke-linecap:round;stroke-linejoin:round;stroke-miterlimit:4;stroke-opacity:1;stroke-dasharray:none"
           id="path3823-8-1-3-3"
           sodipodi:cx="255"
           sodipodi:cy="232.36218"
           sodipodi:rx="5"
           sodipodi:ry="5"
           d="m 254.89932,227.3632 c 2.76087,-0.0556 5.04406,2.13744 5.09967,4.89831 0.0556,2.76086 -2.13745,5.04406 -4.89831,5.09966 -0.0959,0.002 -0.19181,0.001 -0.28764,-0.002"
           sodipodi:start="4.6922523"
           sodipodi:end="7.8913827"
           sodipodi:open="true"
           transform="matrix(0.89075324,0,0,0.89075324,23.354619,19.664929)" />
      </g>
      <g
         id="g3828-3-8-4-4-1"
         style="stroke:#000000;stroke-width:4.19476986;stroke-miterlimit:4;stroke-opacity:1;stroke-dasharray:none;display:inline"
         transform="matrix(-0.70710678,-0.70710678,0.70710678,-0.70710678,261.0898,546.65444)">
        <path
           style="fill:none;stroke:#000000;stroke-width:4.19476986;stroke-linecap:round;stroke-linejoin:miter;stroke-miterlimit:4;stroke-opacity:1;stroke-dasharray:none"
           d="m 250.00063,222.13731 -12.1426,0.0374"
           id="path3793-1-2-2-1-9"
           inkscape:connector-curvature="0"
           sodipodi:nodetypes="cc" />
        <path
           style="fill:none;stroke:#000000;stroke-width:4.19476986;stroke-linecap:round;stroke-linejoin:miter;stroke-miterlimit:4;stroke-opacity:1;stroke-dasharray:none;display:inline"
           d="m 250.13537,231.11955 -23.41519,0.0131"
           id="path3793-2-6-7-3-1-8"
           inkscape:connector-curvature="0"
           sodipodi:nodetypes="cc" />
        <path
           sodipodi:type="arc"
           style="fill:none;stroke:#000000;stroke-width:4.70923901;stroke-linecap:round;stroke-linejoin:round;stroke-miterlimit:4;stroke-opacity:1;stroke-dasharray:none"
           id="path3823-8-7-2-3-6"
           sodipodi:cx="255"
           sodipodi:cy="232.36218"
           sodipodi:rx="5"
           sodipodi:ry="5"
           d="m 254.89932,227.3632 c 2.76087,-0.0556 5.04406,2.13744 5.09967,4.89831 0.0556,2.76086 -2.13745,5.04406 -4.89831,5.09966 -0.0959,0.002 -0.19181,0.001 -0.28764,-0.002"
           sodipodi:start="4.6922523"
           sodipodi:end="7.8913827"
           sodipodi:open="true"
           transform="matrix(0.89075324,0,0,0.89075324,23.354619,19.664929)" />
      </g>
    </g>
    <path
       sodipodi:type="arc"
       style="fill:none;stroke:#000000;stroke-width:1.14600551;stroke-linecap:round;stroke-miterlimit:4;stroke-opacity:1;stroke-dasharray:none"
       id="path4432"
       sodipodi:cx="84.781532"
       sodipodi:cy="84.857658"
       sodipodi:rx="25"
       sodipodi:ry="25"
       d="m 85.98532,59.886657 a 25,25 0 1 1 -2.494171,0.0043"
       transform="matrix(1.7451923,0,0,1.7451923,107.03992,94.394045)"
       inkscape:transform-center-y="15.124997"
       sodipodi:start="4.7605591"
       sodipodi:end="10.943936"
       sodipodi:open="true" />
    <path
       sodipodi:type="arc"
       style="fill:none;stroke:#000000;stroke-width:1.14600551;stroke-linecap:round;stroke-miterlimit:4;stroke-opacity:1;stroke-dasharray:none;display:inline"
       id="path4432-3"
       sodipodi:cx="84.781532"
       sodipodi:cy="84.857658"
       sodipodi:rx="25"
       sodipodi:ry="25"
       d="m 109.78153,84.857658 a 25,25 0 1 1 -49.999998,0 25,25 0 1 1 49.999998,0 z"
       transform="matrix(-0.87259615,-1.5113809,1.5113809,-0.87259615,213.82643,421.98314)"
       inkscape:transform-center-y="-7.5624996"
       inkscape:transform-center-x="-13.098638" />
    <path
       sodipodi:type="arc"
       style="fill:none;stroke:#000000;stroke-width:1.14600551;stroke-linecap:round;stroke-miterlimit:4;stroke-opacity:1;stroke-dasharray:none;display:inline"
       id="path4432-7"
       sodipodi:cx="84.781532"
       sodipodi:cy="84.857658"
       sodipodi:rx="25"
       sodipodi:ry="25"
       d="m 109.78153,84.857658 a 25,25 0 1 1 -49.999998,0 25,25 0 1 1 49.999998,0 z"
       transform="matrix(-0.87259615,1.5113809,-1.5113809,-0.87259615,444.38365,165.70876)"
       inkscape:transform-center-y="-7.5624974"
       inkscape:transform-center-x="13.09863" />
    <path
       style="fill:#ffffff;fill-opacity:1;stroke:#000000;stroke-width:0;stroke-linecap:round;stroke-miterlimit:4;stroke-opacity:1;stroke-dasharray:none"
       d="m 60.415271,50.119483 c -2.124094,-2.114062 -4.024629,-4.063127 -4.22341,-4.331255 -0.533809,-0.720028 -0.453962,-1.318433 0.22411,-1.679577 0.599325,-0.319203 0.766823,-0.203936 3.214036,2.211767 1.921462,1.89672 2.467688,2.368704 2.796218,2.41615 0.576982,0.08333 1.120057,-0.273412 1.215765,-0.798622 0.04131,-0.226718 0.05843,-3.012254 0.03803,-6.190083 l -0.03708,-5.77787 -0.28609,-0.28463 c -0.263538,-0.262192 -0.381783,-0.282158 -1.5,-0.253275 -4.727453,0.122112 -11.398492,1.84932 -16.336363,4.229673 -2.660582,1.282561 -6.058796,3.343254 -7.640421,4.633186 -0.282081,0.230058 -0.547113,0.418286 -0.588959,0.418286 -0.139263,0 0.916902,-2.886783 1.728567,-4.72464 3.504554,-7.935376 9.406808,-14.609956 16.935033,-19.151029 1.841808,-1.11099 4.991104,-2.627201 7.116193,-3.426051 l 1.80296,-0.677757 1.25954,0.444773 c 4.313381,1.523157 8.837073,4.051525 12.50954,6.991792 1.596605,1.278281 4.754903,4.382312 6.021638,5.918171 2.860612,3.468361 5.18862,7.411564 6.826178,11.562241 0.632206,1.60244 1.214684,3.312845 1.214684,3.56684 0,0.05665 -0.576563,-0.330545 -1.28125,-0.86044 -1.877454,-1.411765 -4.139095,-2.81064 -6.40625,-3.962407 -5.15363,-2.618163 -10.74206,-4.212686 -16.457133,-4.695645 -1.683261,-0.142246 -1.85892,-0.137273 -2.161828,0.0612 -0.181335,0.118815 -0.385043,0.361592 -0.452685,0.539506 -0.07612,0.200196 -0.109718,2.530731 -0.08817,6.11508 l 0.03482,5.791603 0.278472,0.278382 c 0.181715,0.181656 0.430314,0.278381 0.715484,0.278381 0.399855,0 0.643485,-0.204058 2.86542,-2.4 2.259826,-2.233388 2.460034,-2.4 2.883949,-2.4 0.596396,0 1.069175,0.451639 1.069175,1.021369 0,0.368908 -0.407445,0.815809 -4.278819,4.693183 -3.984778,3.990951 -4.308731,4.285448 -4.71409,4.285448 -0.403861,0 -0.713949,-0.277362 -4.297259,-3.84375 l 0,0 z"
       id="path4830"
       inkscape:connector-curvature="0"
       transform="translate(190.21847,162.50432)" />
  </g>
</svg>
